<?xml version="1.0" encoding="utf-8"?>
<!-- Generator: Adobe Illustrator 24.1.2, SVG Export Plug-In . SVG Version: 6.00 Build 0)  -->
<svg version="1.1" id="Layer_1" xmlns="http://www.w3.org/2000/svg" xmlns:xlink="http://www.w3.org/1999/xlink" x="0px" y="0px"
	 viewBox="0 0 476 195" style="enable-background:new 0 0 476 195;" xml:space="preserve">
<style type="text/css">
	.st0{fill:#FFFFFF;}
	.st1{fill:url(#SVGID_1_);}
	.st2{fill:#F5BC29;}
</style>
<g>
	<path class="st0" d="M217.6,114h-18v50.6h-11.1V114h-18v-9.1h47.1V114z"/>
	<path class="st0" d="M233.3,126.7c1.7-1.5,3.5-2.8,5.5-3.8s4.3-1.4,7-1.4c2.3,0,4.4,0.4,6.2,1.2c1.8,0.8,3.3,1.9,4.5,3.3
		c1.2,1.4,2.1,3.1,2.7,5.1s0.9,4.1,0.9,6.5v27h-10.2v-27c0-2.6-0.6-4.6-1.8-6s-3-2.1-5.4-2.1c-1.8,0-3.4,0.4-5,1.2
		c-1.5,0.8-3,1.9-4.4,3.3v30.7h-10.2v-61.4h10.2L233.3,126.7L233.3,126.7z"/>
	<path class="st0" d="M281.7,109.8c0,0.9-0.2,1.7-0.5,2.5c-0.4,0.8-0.8,1.4-1.4,2s-1.3,1-2.1,1.4c-0.8,0.3-1.7,0.5-2.6,0.5
		s-1.7-0.2-2.5-0.5s-1.5-0.8-2-1.4c-0.6-0.6-1-1.3-1.4-2c-0.3-0.8-0.5-1.6-0.5-2.5s0.2-1.8,0.5-2.6c0.3-0.8,0.8-1.5,1.4-2.1
		s1.3-1,2-1.4c0.8-0.3,1.6-0.5,2.5-0.5s1.8,0.2,2.6,0.5c0.8,0.3,1.5,0.8,2.1,1.4s1.1,1.3,1.4,2.1
		C281.5,108.1,281.7,108.9,281.7,109.8z M280.3,122.2v42.4h-10.2v-42.4C270.1,122.2,280.3,122.2,280.3,122.2z"/>
	<path class="st0" d="M300.3,127.4c0.9-0.9,1.8-1.6,2.7-2.4c1-0.7,2-1.3,3-1.9c1.1-0.5,2.2-0.9,3.4-1.2c1.2-0.3,2.5-0.4,4-0.4
		c2.3,0,4.4,0.4,6.2,1.2c1.8,0.8,3.3,1.9,4.5,3.3s2.1,3.1,2.7,5.1s0.9,4.1,0.9,6.5v27h-10.2v-27c0-2.6-0.6-4.6-1.8-6
		c-1.2-1.4-3-2.1-5.4-2.1c-1.8,0-3.4,0.4-5,1.2c-1.5,0.8-3,1.9-4.4,3.3v30.7h-10.2v-42.4h6.2c1.3,0,2.2,0.6,2.6,1.9L300.3,127.4z"/>
	<path class="st0" d="M347.5,103.2v35.2h1.9c0.7,0,1.2-0.1,1.6-0.3s0.8-0.5,1.2-1.1l10.5-13c0.4-0.6,0.9-1,1.5-1.3
		c0.5-0.3,1.2-0.5,2.1-0.5h9.3l-13.2,15.7c-0.9,1.2-2,2.2-3.1,2.9c0.6,0.4,1.1,0.9,1.5,1.4c0.5,0.6,0.9,1.1,1.3,1.8l14.1,20.6H367
		c-0.8,0-1.5-0.1-2.1-0.4c-0.6-0.3-1.1-0.7-1.4-1.4l-10.8-16.1c-0.4-0.6-0.8-1-1.2-1.2s-1-0.3-1.9-0.3h-2.3v19.4h-10.2v-61.4
		L347.5,103.2L347.5,103.2z"/>
	<path class="st0" d="M418.1,155.4v9.2h-35v-59.7h11.1v50.6h23.9V155.4z"/>
	<path class="st0" d="M436.4,109.8c0,0.9-0.2,1.7-0.5,2.5c-0.4,0.8-0.8,1.4-1.4,2s-1.3,1-2.1,1.4c-0.8,0.3-1.7,0.5-2.6,0.5
		s-1.7-0.2-2.5-0.5s-1.5-0.8-2-1.4c-0.6-0.6-1-1.3-1.4-2c-0.3-0.8-0.5-1.6-0.5-2.5s0.2-1.8,0.5-2.6c0.3-0.8,0.8-1.5,1.4-2.1
		s1.3-1,2-1.4c0.8-0.3,1.6-0.5,2.5-0.5s1.8,0.2,2.6,0.5c0.8,0.3,1.5,0.8,2.1,1.4s1.1,1.3,1.4,2.1
		C436.2,108.1,436.4,108.9,436.4,109.8z M435,122.2v42.4h-10.2v-42.4C424.8,122.2,435,122.2,435,122.2z"/>
	<path class="st0" d="M459.5,165.2c-3.7,0-6.5-1-8.5-3.1s-3-4.9-3-8.6v-23.7h-4.3c-0.6,0-1-0.2-1.4-0.5c-0.4-0.4-0.6-0.9-0.6-1.6v-4
		l6.8-1.1l2.1-11.6c0.1-0.6,0.4-1,0.8-1.3s0.9-0.5,1.5-0.5h5.3v13.3h11.3v7.3h-11.3v23c0,1.3,0.3,2.4,1,3.1c0.6,0.7,1.5,1.1,2.7,1.1
		c0.6,0,1.2-0.1,1.6-0.2c0.4-0.2,0.8-0.3,1.1-0.5s0.6-0.3,0.8-0.5c0.2-0.2,0.5-0.2,0.7-0.2c0.3,0,0.6,0.1,0.7,0.2
		c0.2,0.2,0.4,0.4,0.6,0.7l3.1,5c-1.5,1.2-3.2,2.2-5.1,2.8C463.6,164.9,461.6,165.2,459.5,165.2z"/>
</g>
<path class="st0" d="M93.5,166.5H61.1c-1.8,0-3.3-1.5-3.3-3.3v-0.3c0-1.8,1.5-3.3,3.3-3.3h32.4c1.8,0,3.3,1.5,3.3,3.3v0.3
	C96.8,165,95.3,166.5,93.5,166.5z"/>
<path class="st0" d="M93.5,177.5H61.1c-1.8,0-3.3-1.5-3.3-3.3v-0.3c0-1.8,1.5-3.3,3.3-3.3h32.4c1.8,0,3.3,1.5,3.3,3.3v0.3
	C96.8,176,95.3,177.5,93.5,177.5z"/>
<path class="st0" d="M84.4,181.6c0,4-3.2,7.2-7.1,7.2s-7.2-3.2-7.2-7.2H84.4z"/>
<radialGradient id="SVGID_1_" cx="77.3" cy="92.9" r="51" gradientTransform="matrix(1 0 0 -1 0 196)" gradientUnits="userSpaceOnUse">
	<stop  offset="0" style="stop-color:#F5BC29"/>
	<stop  offset="0" style="stop-color:#F4BC28"/>
	<stop  offset="0.9365" style="stop-color:#E5B107"/>
</radialGradient>
<circle class="st1" cx="77.3" cy="103.1" r="51"/>
<g>
	<path class="st2" d="M23.9,60.8c-0.5,0-1-0.2-1.4-0.5L3.4,45.6c-1-0.8-1.2-2.3-0.4-3.3s2.3-1.2,3.3-0.4l19.1,14.7
		c1,0.8,1.2,2.3,0.4,3.3C25.3,60.5,24.6,60.8,23.9,60.8z"/>
</g>
<g>
	<path class="st2" d="M77.3,35.2c-1.3,0-2.3-1-2.3-2.3V10.3C74.9,9,76,8,77.3,8s2.3,1,2.3,2.3v22.5C79.6,34.2,78.6,35.2,77.3,35.2z"
		/>
</g>
<g>
	<path class="st2" d="M131.4,60.4c-0.7,0-1.4-0.3-1.9-0.9c-0.8-1-0.6-2.5,0.4-3.3L149,41.5c1-0.8,2.5-0.6,3.3,0.4s0.6,2.5-0.4,3.3
		l-19.1,14.7C132.4,60.2,131.9,60.4,131.4,60.4z"/>
</g>
</svg>
