<svg xmlns="http://www.w3.org/2000/svg" width="23.298" height="18.934" viewBox="0 0 23.298 18.934">
  <path id="icon__twitter" d="M25.869,7.059a9.557,9.557,0,0,1-2.745.753,4.794,4.794,0,0,0,2.1-2.644,9.569,9.569,0,0,1-3.035,1.16,4.784,4.784,0,0,0-8.145,4.36A13.57,13.57,0,0,1,4.193,5.692a4.785,4.785,0,0,0,1.479,6.382,4.76,4.76,0,0,1-2.165-.6c0,.02,0,.04,0,.06a4.783,4.783,0,0,0,3.834,4.687,4.788,4.788,0,0,1-2.159.082,4.785,4.785,0,0,0,4.465,3.319,9.59,9.59,0,0,1-5.936,2.046,9.694,9.694,0,0,1-1.14-.067A13.529,13.529,0,0,0,9.9,23.751a13.507,13.507,0,0,0,13.6-13.6q0-.311-.014-.618a9.71,9.71,0,0,0,2.385-2.474Z" transform="translate(-2.571 -4.817)" fill="#6e7687"/>
</svg>
