<?xml version="1.0" encoding="utf-8"?>
<!-- Generator: Adobe Illustrator 24.1.2, SVG Export Plug-In . SVG Version: 6.00 Build 0)  -->
<svg version="1.1" xmlns="http://www.w3.org/2000/svg" xmlns:xlink="http://www.w3.org/1999/xlink" x="0px" y="0px"
	 viewBox="0 0 220 242.1" style="enable-background:new 0 0 220 242.1;" xml:space="preserve">
<style type="text/css">
	.st0{display:none;}
	.st1{fill:none;stroke:#EF0A0A;stroke-width:8;stroke-miterlimit:10;}
	.st2{fill:#EF0A0A;}
	.st3{fill:none;stroke:#EF0A0A;stroke-width:7.8655;stroke-miterlimit:10;}
	.st4{fill:none;stroke:#EF0A0A;stroke-width:6;stroke-miterlimit:10;}
	.st5{fill:none;stroke:#EF0A0A;stroke-miterlimit:10;}
	.st6{fill:#BDBDBD;}
	.st7{fill:#F4BB29;stroke:#F5BC29;stroke-width:0.1975;stroke-miterlimit:10;}
</style>
<g id="Layer_1" class="st0">
	
		<image style="display:inline;overflow:visible;" width="90" height="96" xlink:href="../interactive.png"  transform="matrix(2.4593 0 0 2.4593 -1.378 1.1654)">
	</image>
</g>
<g id="Layer_2">
	<circle class="st1" cx="-843" cy="-70.1" r="23.9"/>
	<circle class="st1" cx="-843" cy="-70.1" r="38"/>
	<ellipse class="st1" cx="-843" cy="-5.4" rx="50.8" ry="53.5"/>
	<rect x="-891.4" y="-24" class="st1" width="96.7" height="34.9"/>
	<g>
		<path class="st2" d="M-1247.7,167.2c-15.4,0-27.9,12.5-27.9,27.9c0,4.8,1.2,9.3,3.4,13.3c1.3,2.4,3,4.6,4.9,6.5
			c5,5,12,8.1,19.6,8.1s14.6-3.1,19.6-8.1c1.9-1.9,3.6-4.1,4.9-6.5c2.2-4,3.4-8.5,3.4-13.3C-1219.8,179.7-1232.3,167.2-1247.7,167.2
			z M-1230.5,205.2c-1.5,2.6-3.7,4.8-6.2,6.5c-3.2,2.1-6.9,3.3-11,3.3c-4.1,0-7.8-1.2-11-3.3c-2.5-1.7-4.6-3.9-6.2-6.5
			c-1.8-3-2.8-6.4-2.8-10.1c0-11,8.9-19.9,19.9-19.9c11,0,19.9,8.9,19.9,19.9C-1227.8,198.8-1228.8,202.2-1230.5,205.2z"/>
	</g>
	<g>
		<path class="st2" d="M-1214.4,214.1C-1214.5,214.1-1214.5,214.1-1214.4,214.1c-1.8-1.4-4.3-1-5.6,0.8c0,0-0.1,0.1-0.1,0.1
			c0,0,0,0,0,0c-0.8,1-1.6,2-2.4,3c-6.2,6.8-15.2,11.1-25.1,11.1c-9.9,0-18.9-4.3-25.1-11.1c-0.9-0.9-1.7-1.9-2.4-3c0,0,0,0,0,0
			c0,0,0-0.1-0.1-0.1c-1.3-1.8-3.8-2.2-5.6-0.8c0,0,0,0-0.1,0c-1,0.8-1.9,1.6-2.8,2.4c1.4,2.3,3,4.5,4.8,6.5
			c7.7,8.6,18.9,14.1,31.3,14.1c12.4,0,23.6-5.4,31.3-14c1.8-2,3.4-4.2,4.8-6.5C-1212.5,215.7-1213.5,214.9-1214.4,214.1z"/>
	</g>
	<path class="st2" d="M-1195.5,242.1c-0.5-1.7-1.1-3.4-1.8-5c-3.2-7.9-8.2-15-14.3-20.6c-0.9-0.9-1.9-1.7-2.9-2.5c0,0-0.1,0-0.1-0.1
		c-1.7-1.3-4.2-0.9-5.5,0.9c0,0-0.1,0.1-0.1,0.1c0,0,0,0,0,0c-1.2,1.7-0.9,4,0.7,5.3c1.1,0.9,2.1,1.8,3.1,2.7
		c4.2,4,7.7,8.8,10.3,14.1c1,2,1.8,4.1,2.5,6.2c0.1,0.4,0.2,0.8,0.2,1.3v23.6c0,2.1-1.7,3.9-3.9,3.9h-80.9c-2.1,0-3.9-1.7-3.9-3.9
		v-23.5c0-0.4,0.1-0.8,0.2-1.2c0.7-2.2,1.5-4.2,2.5-6.2c2.6-5.3,6.1-10.1,10.3-14.1c1-1,2-1.9,3.1-2.7c1.6-1.3,1.9-3.6,0.7-5.3
		c0,0,0,0,0,0c0,0,0-0.1-0.1-0.1c-1.3-1.8-3.8-2.2-5.6-0.8c0,0,0,0-0.1,0c-1,0.8-1.9,1.6-2.8,2.4c-6.1,5.6-11,12.6-14.3,20.6
		c-0.7,1.6-1.3,3.3-1.8,5c-0.1,0.4-0.2,0.8-0.2,1.2V280h104.7v-36.7C-1195.3,242.9-1195.4,242.5-1195.5,242.1z"/>
	<path class="st3" d="M-870,438.5h-67c-11,0-19.9-8.9-19.9-19.9v-55.8v-13.2c0-11,8.9-19.9,19.9-19.9h67c11,0,19.9,8.9,19.9,19.9v69
		C-850.1,429.6-859,438.5-870,438.5z"/>
	<line class="st3" x1="-850.1" y1="363.4" x2="-957.8" y2="363.4"/>
	<rect x="-940.9" y="344.9" class="st2" width="6.7" height="6.7"/>
	<rect x="-925.2" y="344.9" class="st2" width="6.7" height="6.7"/>
	<rect x="-910.2" y="344.9" class="st2" width="6.7" height="6.7"/>
	<path class="st4" d="M-1043.2,335.3c4.7,67.7,66.7,67,69.2,67"/>
	<path class="st5" d="M-1056,352.9"/>
	<polygon class="st2" points="-1043.5,330.7 -1055.5,348.6 -1028.6,346.2 	"/>
	<polygon class="st6" points="-576,368.8 -699.5,582.6 -452.5,582.6 	"/>
	<path d="M217.1,182.6c0,10.5,0.2,21-0.1,31.4c-0.4,14.6-12.3,26.2-27,26.3c-20.5,0.2-40.9,0.2-61.4,0c-14.9-0.1-27-12.4-27.1-27.3
		c-0.1-20.5-0.1-40.9,0-61.4c0.1-14.4,12.5-26.7,27.2-26.8c20.4-0.1,40.8-0.1,61.2,0c14.5,0.1,26.7,11.9,27,26.3
		C217.4,161.7,217.1,172.1,217.1,182.6C217.1,182.6,217.1,182.6,217.1,182.6z M209.5,164.7c-0.9-0.1-1.4-0.1-1.9-0.1
		c-32,0-64,0-96,0c-2.2,0-2.3,1-2.3,2.7c0,14.7,0,29.4,0,44.1c0,12.7,8.2,21.3,20.8,21.4c19.5,0.2,39,0.1,58.5,0
		c13.9,0,21.2-11.2,20.9-21.4c-0.4-14.5-0.1-29.1-0.1-43.6C209.5,166.8,209.5,165.8,209.5,164.7z M209.3,156.7
		c1.7-13.2-6.4-23.7-19.3-24c-20.3-0.5-40.6-0.4-60.9,0c-12.2,0.3-19.8,9.1-19.8,21.4c0,2.1,0.5,2.8,2.7,2.8c31.7-0.1,63.3,0,95-0.1
		C207.7,156.8,208.4,156.8,209.3,156.7z"/>
	<path d="M22.7,48c7.7,10.9,17.8,17,31,16.9c13.1-0.1,23.1-6.2,30.6-16.9c11.6,6,19.2,14.9,20.5,27.9c1,9.7,0.6,19.6,0.5,29.4
		c-0.1,6.6-5.3,11.1-12.3,11.1c-21.8,0-43.5,0-65.3,0c-4.6,0-9.3,0-13.9,0c-7.1-0.1-11.9-5-11.9-12c0-8.3-0.3-16.6,0.1-24.9
		C2.4,65.1,9.8,54.9,22.7,48z M86.1,58.1c-8.9,9.3-19.6,14.4-32.5,14.4c-13,0-23.8-5-32.8-14.4c-5.9,4.4-10.2,10-10.8,17.1
		c-0.9,9.9-0.6,19.9-0.6,29.9c0,1.8,1.3,3.2,3.2,3.5c1.1,0.2,2.3,0.3,3.4,0.3c25,0,50.1,0,75.1,0c0.7,0,1.5,0,2.2,0
		c2.8-0.3,4.5-1.7,4.5-4.5c0-9.3,0.2-18.7-0.5-28C96.6,68.9,92.4,62.8,86.1,58.1z"/>
	<path d="M53.7,1.2c15.5,0,27.6,12.2,27.5,27.8c0,15.3-12.4,27.7-27.7,27.7c-15.3,0-27.9-12.6-27.8-28C25.8,12.4,39.4,0.6,53.7,1.2z
		 M73.6,28.8c0-11.1-8.9-20.1-20-20.2c-10.9-0.1-20.2,9.1-20.3,20.1c-0.1,10.9,9.4,20.5,20.3,20.4C64.6,48.9,73.6,39.9,73.6,28.8z"
		/>
	<path class="st7" d="M162.2,89c3.2,2.8,6,5.1,8.8,7.5c0.2-0.1,0.3-0.3,0.5-0.4c-3.9-14.9-11.8-27.2-24-36.8
		c-12.1-9.6-26.1-14.2-41.9-14.7c0-1.3,0-2.4,0-3.6c0-1.2,0-2.4,0-3.6c23.1-1.9,64.3,15.3,74.4,60.1c3-3.4,5.8-6.6,8.5-9.8
		c0.2,0.1,0.5,0.1,0.7,0.2c-0.6,4.5,2.6,9.3-2,13.6c-3.5,3.3-6.4,7.3-9.7,11.1c-4.7-4.1-9.2-8-13.8-11.9c-0.2-0.2-0.5-0.5-0.5-0.8
		C162.8,96.4,162.5,93,162.2,89z"/>
	<path class="st7" d="M15.1,143.7c-3.2,3.7-6,6.8-9.1,10.4c-0.3-3.7-0.6-6.9-0.8-10.1c0-0.4,0.1-0.8,0.3-1.1
		c3.9-4.6,7.9-9.2,11.9-14c4.6,4,9.1,7.8,13.5,11.7c0.5,0.4,0.8,1.2,0.9,1.9c0.3,3.1,0.5,6.1,0.8,9.7c-3.1-2.7-5.9-5.1-8.7-7.4
		c-0.2,0.2-0.4,0.3-0.6,0.5c3.8,14.9,11.7,27.2,23.8,36.8c12.2,9.7,26.2,14.4,41.8,14.9c0,2.5,0,4.8,0,7.5
		c-17.8-0.3-33.7-5.9-47.5-17.2C27.8,176.1,19.2,161.6,15.1,143.7z"/>
	<path d="M125.6,140.8c2.1,0.1,3.8,1.8,3.7,4c-0.1,2.2-1.7,3.7-3.9,3.7c-2.2-0.1-3.8-1.7-3.7-3.9
		C121.7,142.4,123.5,140.8,125.6,140.8z"/>
	<path d="M141.5,148.5c-2.3,0-3.9-1.5-3.9-3.7c0-2.2,1.5-3.9,3.7-3.9c2.1,0,3.9,1.7,4,3.8C145.4,146.7,143.7,148.4,141.5,148.5z"/>
	<path d="M157.5,148.5c-2.2,0-3.8-1.6-3.8-3.8c0-2.2,1.7-3.9,3.8-3.9c2.1,0,3.9,1.8,3.9,3.9C161.4,146.8,159.6,148.5,157.5,148.5z"
		/>
</g>
</svg>
