<?xml version="1.0" encoding="utf-8"?>
<!-- Generator: Adobe Illustrator 24.1.2, SVG Export Plug-In . SVG Version: 6.00 Build 0)  -->
<svg version="1.1" id="Layer_1" xmlns="http://www.w3.org/2000/svg" xmlns:xlink="http://www.w3.org/1999/xlink" x="0px" y="0px"
	 viewBox="0 0 104.9 102.9" style="enable-background:new 0 0 104.9 102.9;" xml:space="preserve">
<style type="text/css">
	.st0{fill:#F5BC29;}
</style>
<image style="display:none;overflow:visible;" width="99" height="99" xlink:href="../setting-lines.png"  transform="matrix(1 0 0 1 3.315 1.748)">
</image>
<g>
	<path d="M23.7,18.2H5c-1.6,0-3-1.3-3-3s1.3-3,3-3h18.7c1.6,0,3,1.3,3,3S25.3,18.2,23.7,18.2z"/>
	<path d="M100.4,18.2H55.8c-1.6,0-3-1.3-3-3s1.3-3,3-3h44.5c1.6,0,3,1.3,3,3S102,18.2,100.4,18.2z"/>
	<path d="M52.9,54.2H5c-1.6,0-3-1.3-3-3s1.3-3,3-3h47.9c1.6,0,3,1.3,3,3S54.5,54.2,52.9,54.2z"/>
	<path d="M100.4,54.2H85c-1.6,0-3-1.3-3-3s1.3-3,3-3h15.3c1.6,0,3,1.3,3,3S102,54.2,100.4,54.2z"/>
	<path d="M100.4,90.2H52.5c-1.6,0-3-1.3-3-3s1.3-3,3-3h47.9c1.6,0,3,1.3,3,3S102,90.2,100.4,90.2z"/>
	<path d="M20.4,90.2H5c-1.6,0-3-1.3-3-3c0-1.6,1.3-3,3-3h15.3c1.6,0,3,1.3,3,3C23.3,88.9,22,90.2,20.4,90.2z"/>
	<path class="st0" d="M34.4,28.9c-7.5,0-13.6-6.1-13.6-13.6c0-7.5,6.1-13.6,13.6-13.6S48,7.7,48,15.2C48,22.8,41.9,28.9,34.4,28.9z
		 M34.4,7.6c-4.2,0-7.7,3.4-7.7,7.7s3.4,7.7,7.7,7.7s7.7-3.4,7.7-7.7S38.6,7.6,34.4,7.6z"/>
	<path class="st0" d="M74.4,64.9c-7.5,0-13.6-6.1-13.6-13.6s6.1-13.6,13.6-13.6S88,43.7,88,51.2S81.9,64.9,74.4,64.9z M74.4,43.6
		c-4.2,0-7.7,3.4-7.7,7.7s3.4,7.7,7.7,7.7s7.7-3.4,7.7-7.7S78.6,43.6,74.4,43.6z"/>
	<path class="st0" d="M31,100.9c-7.5,0-13.6-6.1-13.6-13.6c0-7.5,6.1-13.6,13.6-13.6s13.6,6.1,13.6,13.6
		C44.7,94.8,38.6,100.9,31,100.9z M31,79.6c-4.2,0-7.7,3.4-7.7,7.7c0,4.2,3.4,7.7,7.7,7.7s7.7-3.4,7.7-7.7
		C38.7,83,35.3,79.6,31,79.6z"/>
</g>
</svg>
