<?xml version="1.0" encoding="utf-8"?>
<!-- Generator: Adobe Illustrator 24.1.2, SVG Export Plug-In . SVG Version: 6.00 Build 0)  -->
<svg version="1.1" id="Layer_1" xmlns="http://www.w3.org/2000/svg" xmlns:xlink="http://www.w3.org/1999/xlink" x="0px" y="0px"
	 viewBox="0 0 104.5 105.2" style="enable-background:new 0 0 104.5 105.2;" xml:space="preserve">
<style type="text/css">
	.st0{fill:#F4BB29;stroke:#F5BC29;stroke-width:0.4051;stroke-miterlimit:10;}
</style>
<image style="display:none;overflow:visible;" width="103" height="109" xlink:href="../../1. TY - Mac/code backup/ty-mac/public/courselist/images/simple_icon.png"  transform="matrix(1 0 0 1 1.1024 -1.5512)">
</image>
<g>
	<path d="M102.6,44L90,40.8c-0.7-2.1-1.5-4.1-2.5-6l6.7-11.1c0.5-0.8,0.4-1.8-0.3-2.5l-9.9-9.9c-0.7-0.7-1.7-0.8-2.5-0.3l-11.1,6.7
		c-1.9-1-3.9-1.8-6-2.5L61.2,2.6c-0.2-0.9-1-1.5-2-1.5h-14c-0.9,0-1.7,0.6-2,1.5l-3.1,12.6c-2.1,0.7-4.1,1.5-6,2.5L23,11
		c-0.8-0.5-1.8-0.4-2.5,0.3l-9.9,9.9c-0.7,0.7-0.8,1.7-0.3,2.5L17,34.8c-1,1.9-1.8,3.9-2.5,6L1.9,44c-0.9,0.2-1.5,1-1.5,2v14
		c0,0.9,0.6,1.7,1.5,2l12.6,3.1c0.7,2.1,1.5,4.1,2.5,6l-6.7,11.1C9.8,83,10,84,10.6,84.6l9.9,9.9c0.7,0.7,1.7,0.8,2.5,0.3l11.1-6.7
		c1.9,1,3.9,1.8,6,2.5l3.1,12.6c0.2,0.9,1,1.5,2,1.5h14c0.9,0,1.7-0.6,2-1.5l3.1-12.6c2.1-0.7,4.1-1.5,6-2.5l11.1,6.7
		c0.8,0.5,1.8,0.4,2.5-0.3l9.9-9.9c0.7-0.7,0.8-1.7,0.3-2.5l-6.7-11.1c1-1.9,1.8-3.9,2.5-6l12.6-3.1c0.9-0.2,1.5-1,1.5-2v-14
		C104.1,45,103.5,44.2,102.6,44L102.6,44z M100.1,58.4l-12.1,3c-0.7,0.2-1.3,0.7-1.5,1.4c-0.7,2.6-1.8,5-3,7.3c-0.3,0.6-0.3,1.4,0,2
		l6.4,10.7l-7.7,7.7l-10.7-6.4c-0.6-0.4-1.4-0.4-2,0c-2.3,1.3-4.8,2.3-7.3,3c-0.7,0.2-1.2,0.8-1.4,1.5l-3,12.1H46.8l-3-12.1
		c-0.2-0.7-0.7-1.3-1.4-1.5c-2.6-0.7-5-1.8-7.3-3c-0.6-0.3-1.4-0.3-2,0l-10.7,6.4l-7.7-7.7L21,72.2c0.4-0.6,0.4-1.4,0-2
		c-1.3-2.3-2.3-4.8-3-7.3c-0.2-0.7-0.8-1.2-1.5-1.4l-12.1-3V47.5l12.1-3c0.7-0.2,1.3-0.7,1.5-1.4c0.7-2.6,1.8-5,3-7.3
		c0.3-0.6,0.3-1.4,0-2L14.6,23l7.7-7.7L33,21.7c0.6,0.4,1.4,0.4,2,0c2.3-1.3,4.8-2.3,7.3-3c0.7-0.2,1.2-0.8,1.4-1.5l3-12.1h10.9
		l3,12.1c0.2,0.7,0.7,1.3,1.4,1.5c2.6,0.7,5,1.8,7.3,3c0.6,0.3,1.4,0.3,2,0l10.7-6.4l7.7,7.7l-6.4,10.7c-0.4,0.6-0.4,1.4,0,2
		c1.3,2.3,2.3,4.8,3,7.3c0.2,0.7,0.8,1.2,1.5,1.4l12.1,3L100.1,58.4z"/>
	<circle cx="51.1" cy="27.5" r="2"/>
	<path d="M33.1,72.4c10.7,10.7,28.2,10.7,39,0s10.7-28.2,0-39c-3.1-3.1-7-5.5-11.3-6.8c-1.1-0.3-2.2,0.3-2.5,1.3
		c-0.3,1.1,0.3,2.2,1.3,2.5c3.6,1.1,6.9,3.1,9.6,5.8c9.2,9.2,9.2,24.1,0,33.2s-24.1,9.2-33.2,0c-9.2-9.2-9.2-24.1,0-33.2
		c2.1-2.1,4.5-3.7,7.1-4.9c1-0.4,1.5-1.6,1-2.7c-0.5-1-1.6-1.5-2.7-1c-3.1,1.4-5.9,3.3-8.4,5.7C22.3,44.2,22.3,61.7,33.1,72.4
		L33.1,72.4z"/>
	<g>
		<g>
			<g>
				<path class="st0" d="M61.2,47c-0.6-0.6-1.5-0.6-2.1-0.1l-9.3,8.8l-4.4-4.6c-0.6-0.6-1.5-0.6-2.1,0c-0.6,0.6-0.6,1.5,0,2.1
					l5.4,5.6c0.3,0.3,0.7,0.4,1,0.4c0.4,0,0.7-0.1,1-0.4l10.3-9.8C61.7,48.5,61.8,47.6,61.2,47z"/>
			</g>
		</g>
		<g>
			<g>
				<path class="st0" d="M52.6,34.6c-10.1,0-18.3,8.2-18.3,18.3s8.2,18.3,18.3,18.3S70.9,63,70.9,52.9S62.7,34.6,52.6,34.6z
					 M52.6,68.3c-8.5,0-15.3-6.9-15.3-15.3c0-8.5,6.9-15.3,15.3-15.3c8.5,0,15.3,6.9,15.3,15.3C67.9,61.4,61,68.3,52.6,68.3z"/>
			</g>
		</g>
	</g>
</g>
</svg>
