<svg xmlns="http://www.w3.org/2000/svg" width="18.475" height="16.422" viewBox="0 0 18.475 16.422">
  <path id="assignments" d="M7,13.6a.355.355,0,0,0-.326-.209.35.35,0,0,0-.321.2l-.246.492a.513.513,0,0,1-.946-.067L4.619,12.4l-.34,1.023a1.385,1.385,0,0,1-1.315.947h-.4a.513.513,0,0,1,0-1.026h.4A.359.359,0,0,0,3.3,13.1l.583-1.753a.77.77,0,0,1,1.461,0l.445,1.336a1.439,1.439,0,0,1,2.117.454.364.364,0,0,0,.3.2V10.7l4.105-4.076V5.132H7.954a.772.772,0,0,1-.77-.77V0H.77A.768.768,0,0,0,0,.77V15.652a.768.768,0,0,0,.77.77H11.547a.768.768,0,0,0,.77-.77V14.369l-4.105,0A1.377,1.377,0,0,1,7,13.6ZM12.316,3.91a.767.767,0,0,0-.225-.542L8.952.225A.769.769,0,0,0,8.407,0h-.2V4.105h4.105ZM9.237,11.128v2.214H11.45l5.186-5.221L14.459,5.945Zm9-5.761L17.213,4.345a.817.817,0,0,0-1.155,0l-.874.874L17.361,7.4l.874-.874A.816.816,0,0,0,18.235,5.367Z" fill="#868e96"/>
</svg>
