<svg id="Disappointed_greyscale" xmlns="http://www.w3.org/2000/svg" width="44.218" height="44.25" viewBox="0 0 44.218 44.25">
  <g id="Sad">
    <rect id="Sad_bg" width="44" height="44" rx="22" transform="translate(0 0.25)" fill="#fff9e8"/>
    <g id="sad_emoji" transform="translate(0 0)">
      <g id="Group_1155" data-name="Group 1155" transform="translate(0 0)">
        <g id="Group_1154" data-name="Group 1154" transform="translate(0 0)">
          <g id="Group_1151" data-name="Group 1151">
            <circle id="Ellipse_21" data-name="Ellipse 21" cx="15.633" cy="15.633" r="15.633" transform="translate(0 22.109) rotate(-45)" fill="#ffd053"/>
          </g>
          <g id="Group_1152" data-name="Group 1152" transform="translate(8.935 8.766)">
            <path id="Path_603" data-name="Path 603" d="M50.312,25.88A15.635,15.635,0,0,1,28.96,47.625,15.634,15.634,0,1,0,50.312,25.88Z" transform="translate(-28.96 -25.88)" fill="#ffc448"/>
          </g>
          <g id="Group_1153" data-name="Group 1153" transform="translate(7.521 7.631)">
            <path id="Path_604" data-name="Path 604" d="M22.33,35.817a14.514,14.514,0,0,1,26.02-8.847A14.515,14.515,0,1,0,24.26,43.052,14.427,14.427,0,0,1,22.33,35.817Z" transform="translate(-21.25 -19.69)" fill="#ffd77a"/>
          </g>
        </g>
      </g>
      <path id="Path_605" data-name="Path 605" d="M82.686,127.629a4.966,4.966,0,0,0-3.3-1.183,5.22,5.22,0,0,0-3.279,1.188,4.569,4.569,0,0,0-1.1,1.357,3.708,3.708,0,0,0-.429,1.643.3.3,0,0,0,.539.187,6.884,6.884,0,0,1,.937-1.016,5.184,5.184,0,0,1,3.342-1.251,4.79,4.79,0,0,1,2.272.541,5.9,5.9,0,0,1,1.977,1.724.3.3,0,0,0,.24.119.312.312,0,0,0,.1-.017.3.3,0,0,0,.2-.29A4.139,4.139,0,0,0,82.686,127.629Z" transform="translate(-57.278 -99.235)" fill="#654735"/>
      <g id="Group_1156" data-name="Group 1156" transform="translate(10.75 21.191)">
        <path id="Path_606" data-name="Path 606" d="M133.3,97.087h0c-.205-.061-.4-.116-.607-.172-.424-.119-.823-.231-1.209-.365a10.873,10.873,0,0,1-1.592-.677,9.472,9.472,0,0,1-1.438-.934,14.538,14.538,0,0,1-1.372-1.256.152.152,0,0,0-.259.116,3.706,3.706,0,0,0,.756,1.979,4.811,4.811,0,0,0,1.632,1.388,5.087,5.087,0,0,0,1.97.567l.079.006c.1.006.189.007.281.007a4.114,4.114,0,0,0,1.779-.374.151.151,0,0,0,.086-.149A.148.148,0,0,0,133.3,97.087Zm-.02.066Z" transform="translate(-110.694 -93.637)" fill="#2c2c2c"/>
        <path id="Path_607" data-name="Path 607" d="M45.35,93.642a.152.152,0,0,0-.169.031,14.31,14.31,0,0,1-1.372,1.258,9.521,9.521,0,0,1-1.438.934,10.677,10.677,0,0,1-1.592.677c-.385.134-.785.246-1.216.367-.194.055-.394.11-.6.171h0a.153.153,0,0,0-.108.134.149.149,0,0,0,.086.149,4.146,4.146,0,0,0,1.779.374c.092,0,.185,0,.281-.007l.079-.006a5.078,5.078,0,0,0,1.97-.567,4.808,4.808,0,0,0,1.632-1.388,3.68,3.68,0,0,0,.756-1.979A.153.153,0,0,0,45.35,93.642Z" transform="translate(-38.857 -93.628)" fill="#2c2c2c"/>
      </g>
    </g>
    <rect id="Sad_bg-2" data-name="Sad_bg" width="44" height="44" rx="22" transform="translate(0 0.25)" style="mix-blend-mode: color;isolation: isolate"/>
  </g>
</svg>
