<svg id="Background" xmlns="http://www.w3.org/2000/svg" width="1705.098" height="659" viewBox="0 0 1705.098 659">
  <rect id="Rectangle_224" data-name="Rectangle 224" width="1695" height="659" fill="#fff"/>
  <path id="background-wave" d="M1177.8,645.6V4.1c0-3.865-2.55-7.011-5.684-7.011H500.79c-20.868,15.5-45.64,65.011-52.349,92.3-11.453,46.526-36.623,78.856-49.4,87.483-33.4,22.56-71.038,17.114-107.206,27.6-39.187,11.368-75.725,40.623-92.961,83.9-16.681,41.853-11.823,76.941-21.5,120.006-9.829,43.733-45.127,77.679-78.645,93.51-35.526,16.78-69.87,29.378-76.352,76.8-3.333,24.405-1.581,49.689,4.159,73.9H1172.158C1175.249,652.607,1177.8,649.462,1177.8,645.6Z" transform="translate(527.299 5.91)" fill="#fff9e8"/>
</svg>
