<svg id="ty_mac__vector" xmlns="http://www.w3.org/2000/svg" xmlns:xlink="http://www.w3.org/1999/xlink" width="152.827" height="59.041" viewBox="0 0 152.827 59.041">
  <defs>
    <radialGradient id="radial-gradient" cx="0.5" cy="0.5" r="0.5" gradientTransform="translate(0)" gradientUnits="objectBoundingBox">
      <stop offset="0" stop-color="#f5bc29"/>
      <stop offset="0" stop-color="#f4bc28"/>
      <stop offset="0.937" stop-color="#e5b107"/>
    </radialGradient>
  </defs>
  <g id="Group_1566" data-name="Group 1566" transform="translate(54.86 31.088)">
    <path id="Path_929" data-name="Path 929" d="M185.881,107.872H180V124.4h-3.625V107.872H170.5V104.9h15.381Z" transform="translate(-170.5 -104.345)" fill="#2c3443"/>
    <path id="Path_930" data-name="Path 930" d="M226.431,110.941a8.4,8.4,0,0,1,1.8-1.241,5.689,5.689,0,0,1,4.311-.065,4.092,4.092,0,0,1,1.469,1.078,4.514,4.514,0,0,1,.882,1.665,7.25,7.25,0,0,1,.294,2.123v8.817h-3.331V114.5a2.925,2.925,0,0,0-.588-1.959,2.2,2.2,0,0,0-1.763-.686,3.541,3.541,0,0,0-1.633.392,6.122,6.122,0,0,0-1.437,1.078v10.025H223.1V103.3h3.331v7.641Z" transform="translate(-205.923 -103.267)" fill="#2c3443"/>
    <path id="Path_931" data-name="Path 931" d="M272.945,105.355a2.274,2.274,0,0,1-.163.816,2.345,2.345,0,0,1-.457.653,2.517,2.517,0,0,1-.686.457,2.453,2.453,0,0,1-.849.163,2.274,2.274,0,0,1-.816-.163,1.578,1.578,0,0,1-.653-.457,2.946,2.946,0,0,1-.457-.653,2.274,2.274,0,0,1-.163-.816,2.453,2.453,0,0,1,.163-.849,1.945,1.945,0,0,1,.457-.686,2.946,2.946,0,0,1,.653-.457,2.274,2.274,0,0,1,.816-.163,2.453,2.453,0,0,1,.849.163,2.1,2.1,0,0,1,1.143,1.143A2.608,2.608,0,0,1,272.945,105.355Zm-.457,4.049v13.846h-3.331V109.4Z" transform="translate(-236.632 -103.2)" fill="#2c3443"/>
    <path id="Path_932" data-name="Path 932" d="M293.835,123.427c.294-.294.588-.522.882-.784.327-.229.653-.425.98-.62a6.391,6.391,0,0,1,1.11-.392,5.364,5.364,0,0,1,1.306-.131,4.977,4.977,0,0,1,2.025.392,4.092,4.092,0,0,1,1.47,1.078,4.515,4.515,0,0,1,.882,1.665,7.25,7.25,0,0,1,.294,2.123v8.817h-3.331v-8.817a2.925,2.925,0,0,0-.588-1.959,2.2,2.2,0,0,0-1.763-.686,3.541,3.541,0,0,0-1.633.392,6.123,6.123,0,0,0-1.437,1.078v10.025H290.7V121.761h2.025a.811.811,0,0,1,.849.62Z" transform="translate(-251.448 -115.524)" fill="#2c3443"/>
    <path id="Path_933" data-name="Path 933" d="M340.5,103.2v11.495h.62a1.145,1.145,0,0,0,.522-.1.982.982,0,0,0,.392-.359l3.429-4.245a1.22,1.22,0,0,1,.49-.425,1.327,1.327,0,0,1,.686-.163h3.037l-4.311,5.127a3.935,3.935,0,0,1-1.012.947,2.2,2.2,0,0,1,.49.457,3.852,3.852,0,0,1,.424.588l4.6,6.727h-3a1.515,1.515,0,0,1-.686-.131.892.892,0,0,1-.457-.457l-3.527-5.258a1.109,1.109,0,0,0-.392-.392,1.432,1.432,0,0,0-.62-.1h-.751v6.335H337.1V103.2h3.4Z" transform="translate(-282.696 -103.2)" fill="#2c3443"/>
    <path id="Path_934" data-name="Path 934" d="M394.53,121.391v3H383.1V104.9h3.625v16.524h7.8Z" transform="translate(-313.674 -104.345)" fill="#2c3443"/>
    <path id="Path_935" data-name="Path 935" d="M427.645,105.355a2.273,2.273,0,0,1-.163.816,2.345,2.345,0,0,1-.457.653,2.516,2.516,0,0,1-.686.457,2.453,2.453,0,0,1-.849.163,2.274,2.274,0,0,1-.816-.163,1.578,1.578,0,0,1-.653-.457,2.946,2.946,0,0,1-.457-.653,2.274,2.274,0,0,1-.163-.816,2.453,2.453,0,0,1,.163-.849,1.945,1.945,0,0,1,.457-.686,2.946,2.946,0,0,1,.653-.457,2.274,2.274,0,0,1,.816-.163,2.453,2.453,0,0,1,.849.163,2.1,2.1,0,0,1,1.143,1.143A2.607,2.607,0,0,1,427.645,105.355Zm-.457,4.049v13.846h-3.331V109.4Z" transform="translate(-340.814 -103.2)" fill="#2c3443"/>
    <path id="Path_936" data-name="Path 936" d="M447.513,127.487a3.627,3.627,0,0,1-2.776-1.012,3.869,3.869,0,0,1-.98-2.808v-7.739h-1.4a.708.708,0,0,1-.457-.163.689.689,0,0,1-.2-.522v-1.306l2.221-.359.686-3.788a.639.639,0,0,1,.261-.425.8.8,0,0,1,.49-.163h1.731v4.343h3.69v2.384h-3.69v7.511a1.4,1.4,0,0,0,.327,1.012,1.106,1.106,0,0,0,.882.359,2.272,2.272,0,0,0,.522-.065,3.829,3.829,0,0,0,.359-.163,1.822,1.822,0,0,0,.261-.163.311.311,0,0,1,.229-.065.381.381,0,0,1,.229.065,1.422,1.422,0,0,1,.2.229l1.012,1.633a5.173,5.173,0,0,1-1.665.914A6.109,6.109,0,0,1,447.513,127.487Z" transform="translate(-353.138 -107.241)" fill="#2c3443"/>
  </g>
  <path id="Path_937" data-name="Path 937" d="M69.458,161.853H58.878a1.087,1.087,0,0,1-1.078-1.078v-.1a1.087,1.087,0,0,1,1.078-1.078h10.58a1.087,1.087,0,0,1,1.078,1.078v.1A1.087,1.087,0,0,1,69.458,161.853Z" transform="translate(-39.743 -110.094)" fill="#2c3443"/>
  <path id="Path_938" data-name="Path 938" d="M69.458,172.853H58.878a1.087,1.087,0,0,1-1.078-1.078v-.1a1.087,1.087,0,0,1,1.078-1.078h10.58a1.087,1.087,0,0,1,1.078,1.078v.1A1.087,1.087,0,0,1,69.458,172.853Z" transform="translate(-39.743 -117.502)" fill="#2c3443"/>
  <path id="Path_939" data-name="Path 939" d="M74.77,181.6a2.335,2.335,0,0,1-2.319,2.351A2.362,2.362,0,0,1,70.1,181.6Z" transform="translate(-48.027 -124.91)" fill="#2c3443"/>
  <circle id="Ellipse_62" data-name="Ellipse 62" cx="16.654" cy="16.654" r="16.654" transform="translate(7.77 14.401)" fill="url(#radial-gradient)"/>
  <g id="Group_1567" data-name="Group 1567" transform="translate(0 10.909)">
    <path id="Path_940" data-name="Path 940" d="M9.493,47.739a.78.78,0,0,1-.457-.163L2.8,42.776a.768.768,0,1,1,.947-1.208l6.237,4.8a.775.775,0,0,1,.131,1.078A.8.8,0,0,1,9.493,47.739Z" transform="translate(-2.506 -41.406)" fill="#f5bc29"/>
  </g>
  <g id="Group_1568" data-name="Group 1568" transform="translate(23.671)">
    <path id="Path_941" data-name="Path 941" d="M75.747,16.882A.739.739,0,0,1,75,16.131V8.751A.72.72,0,0,1,75.747,8a.739.739,0,0,1,.751.751V16.1A.747.747,0,0,1,75.747,16.882Z" transform="translate(-74.994 -8)" fill="#f5bc29"/>
  </g>
  <g id="Group_1569" data-name="Group 1569" transform="translate(41.31 10.778)">
    <path id="Path_942" data-name="Path 942" d="M129.788,47.339a.8.8,0,0,1-.62-.294.775.775,0,0,1,.131-1.078l6.237-4.8a.768.768,0,0,1,.947,1.208l-6.237,4.8A.78.78,0,0,1,129.788,47.339Z" transform="translate(-129.006 -41.006)" fill="#f5bc29"/>
  </g>
</svg>
