<svg id="Dotted" xmlns="http://www.w3.org/2000/svg" width="208.909" height="153.799" viewBox="0 0 208.909 153.799">
  <g id="Group_1" data-name="Group 1" transform="translate(0.087)">
    <rect id="Rectangle_5" data-name="Rectangle 5" width="1.391" height="6.198" transform="translate(3.022)" fill="#e0e0e0"/>
    <rect id="Rectangle_6" data-name="Rectangle 6" width="1.391" height="7.589" transform="translate(7.589 2.337) rotate(90)" fill="#e0e0e0"/>
  </g>
  <g id="Group_2" data-name="Group 2" transform="translate(20.209)">
    <rect id="Rectangle_7" data-name="Rectangle 7" width="1.391" height="6.198" transform="translate(3.01)" fill="#e0e0e0"/>
    <rect id="Rectangle_8" data-name="Rectangle 8" width="1.391" height="7.589" transform="translate(7.589 2.325) rotate(90)" fill="#e0e0e0"/>
  </g>
  <g id="Group_3" data-name="Group 3" transform="translate(40.331)">
    <rect id="Rectangle_9" data-name="Rectangle 9" width="1.391" height="6.198" transform="translate(2.998)" fill="#e0e0e0"/>
    <rect id="Rectangle_10" data-name="Rectangle 10" width="1.391" height="7.589" transform="translate(7.589 2.313) rotate(90)" fill="#e0e0e0"/>
  </g>
  <g id="Group_4" data-name="Group 4" transform="translate(60.453)">
    <rect id="Rectangle_11" data-name="Rectangle 11" width="1.391" height="6.198" transform="translate(3.113)" fill="#e0e0e0"/>
    <rect id="Rectangle_12" data-name="Rectangle 12" width="1.391" height="7.589" transform="translate(7.589 2.428) rotate(90)" fill="#e0e0e0"/>
  </g>
  <g id="Group_5" data-name="Group 5" transform="translate(80.575)">
    <rect id="Rectangle_13" data-name="Rectangle 13" width="1.391" height="6.198" transform="translate(3.101)" fill="#e0e0e0"/>
    <rect id="Rectangle_14" data-name="Rectangle 14" width="1.391" height="7.589" transform="translate(7.589 2.416) rotate(90)" fill="#e0e0e0"/>
  </g>
  <g id="Group_6" data-name="Group 6" transform="translate(100.698)">
    <rect id="Rectangle_15" data-name="Rectangle 15" width="1.391" height="6.198" transform="translate(3.089)" fill="#e0e0e0"/>
    <rect id="Rectangle_16" data-name="Rectangle 16" width="1.391" height="7.589" transform="translate(7.589 2.404) rotate(90)" fill="#e0e0e0"/>
  </g>
  <g id="Group_7" data-name="Group 7" transform="translate(120.82)">
    <rect id="Rectangle_17" data-name="Rectangle 17" width="1.391" height="6.198" transform="translate(3.077)" fill="#e0e0e0"/>
    <rect id="Rectangle_18" data-name="Rectangle 18" width="1.391" height="7.589" transform="translate(7.589 2.392) rotate(90)" fill="#e0e0e0"/>
  </g>
  <g id="Group_8" data-name="Group 8" transform="translate(140.942)">
    <rect id="Rectangle_19" data-name="Rectangle 19" width="1.391" height="6.198" transform="translate(3.065)" fill="#e0e0e0"/>
    <rect id="Rectangle_20" data-name="Rectangle 20" width="1.391" height="7.589" transform="translate(7.589 2.38) rotate(90)" fill="#e0e0e0"/>
  </g>
  <g id="Group_9" data-name="Group 9" transform="translate(161.064)">
    <rect id="Rectangle_21" data-name="Rectangle 21" width="1.391" height="6.198" transform="translate(3.053)" fill="#e0e0e0"/>
    <rect id="Rectangle_22" data-name="Rectangle 22" width="1.391" height="7.589" transform="translate(7.589 2.368) rotate(90)" fill="#e0e0e0"/>
  </g>
  <g id="Group_10" data-name="Group 10" transform="translate(181.187)">
    <rect id="Rectangle_23" data-name="Rectangle 23" width="1.391" height="6.198" transform="translate(3.041)" fill="#e0e0e0"/>
    <rect id="Rectangle_24" data-name="Rectangle 24" width="1.391" height="7.589" transform="translate(7.589 2.356) rotate(90)" fill="#e0e0e0"/>
  </g>
  <g id="Group_11" data-name="Group 11" transform="translate(201.309)">
    <rect id="Rectangle_25" data-name="Rectangle 25" width="1.391" height="6.198" transform="translate(3.029)" fill="#e0e0e0"/>
    <rect id="Rectangle_26" data-name="Rectangle 26" width="1.391" height="7.589" transform="translate(7.589 2.344) rotate(90)" fill="#e0e0e0"/>
  </g>
  <g id="Group_12" data-name="Group 12" transform="translate(0.058 21.122)">
    <rect id="Rectangle_27" data-name="Rectangle 27" width="1.391" height="6.198" transform="translate(3.051)" fill="#e0e0e0"/>
    <rect id="Rectangle_28" data-name="Rectangle 28" width="1.391" height="7.589" transform="translate(7.589 2.308) rotate(90)" fill="#e0e0e0"/>
  </g>
  <g id="Group_13" data-name="Group 13" transform="translate(20.18 21.122)">
    <rect id="Rectangle_29" data-name="Rectangle 29" width="1.391" height="6.198" transform="translate(3.039)" fill="#e0e0e0"/>
    <rect id="Rectangle_30" data-name="Rectangle 30" width="1.391" height="7.589" transform="translate(7.589 2.296) rotate(90)" fill="#e0e0e0"/>
  </g>
  <g id="Group_14" data-name="Group 14" transform="translate(40.302 21.122)">
    <rect id="Rectangle_31" data-name="Rectangle 31" width="1.391" height="6.198" transform="translate(3.027)" fill="#e0e0e0"/>
    <rect id="Rectangle_32" data-name="Rectangle 32" width="1.391" height="7.589" transform="translate(7.589 2.284) rotate(90)" fill="#e0e0e0"/>
  </g>
  <g id="Group_15" data-name="Group 15" transform="translate(60.425 21.122)">
    <rect id="Rectangle_33" data-name="Rectangle 33" width="1.391" height="6.198" transform="translate(3.142)" fill="#e0e0e0"/>
    <rect id="Rectangle_34" data-name="Rectangle 34" width="1.391" height="7.589" transform="translate(7.589 2.399) rotate(90)" fill="#e0e0e0"/>
  </g>
  <g id="Group_16" data-name="Group 16" transform="translate(80.547 21.122)">
    <rect id="Rectangle_35" data-name="Rectangle 35" width="1.391" height="6.198" transform="translate(3.13)" fill="#e0e0e0"/>
    <rect id="Rectangle_36" data-name="Rectangle 36" width="1.391" height="7.589" transform="translate(7.589 2.387) rotate(90)" fill="#e0e0e0"/>
  </g>
  <g id="Group_17" data-name="Group 17" transform="translate(100.669 21.122)">
    <rect id="Rectangle_37" data-name="Rectangle 37" width="1.391" height="6.198" transform="translate(3.118)" fill="#e0e0e0"/>
    <rect id="Rectangle_38" data-name="Rectangle 38" width="1.391" height="7.589" transform="translate(7.589 2.375) rotate(90)" fill="#e0e0e0"/>
  </g>
  <g id="Group_18" data-name="Group 18" transform="translate(120.791 21.122)">
    <rect id="Rectangle_39" data-name="Rectangle 39" width="1.391" height="6.198" transform="translate(3.106)" fill="#e0e0e0"/>
    <rect id="Rectangle_40" data-name="Rectangle 40" width="1.391" height="7.589" transform="translate(7.589 2.363) rotate(90)" fill="#e0e0e0"/>
  </g>
  <g id="Group_19" data-name="Group 19" transform="translate(140.913 21.122)">
    <rect id="Rectangle_41" data-name="Rectangle 41" width="1.391" height="6.198" transform="translate(3.094)" fill="#e0e0e0"/>
    <rect id="Rectangle_42" data-name="Rectangle 42" width="1.391" height="7.589" transform="translate(7.589 2.351) rotate(90)" fill="#e0e0e0"/>
  </g>
  <g id="Group_20" data-name="Group 20" transform="translate(161.036 21.122)">
    <rect id="Rectangle_43" data-name="Rectangle 43" width="1.391" height="6.198" transform="translate(3.082)" fill="#e0e0e0"/>
    <rect id="Rectangle_44" data-name="Rectangle 44" width="1.391" height="7.589" transform="translate(7.589 2.339) rotate(90)" fill="#e0e0e0"/>
  </g>
  <g id="Group_21" data-name="Group 21" transform="translate(181.158 21.122)">
    <rect id="Rectangle_45" data-name="Rectangle 45" width="1.391" height="6.198" transform="translate(3.07)" fill="#e0e0e0"/>
    <rect id="Rectangle_46" data-name="Rectangle 46" width="1.391" height="7.589" transform="translate(7.589 2.327) rotate(90)" fill="#e0e0e0"/>
  </g>
  <g id="Group_22" data-name="Group 22" transform="translate(201.28 21.122)">
    <rect id="Rectangle_47" data-name="Rectangle 47" width="1.391" height="6.198" transform="translate(3.058)" fill="#e0e0e0"/>
    <rect id="Rectangle_48" data-name="Rectangle 48" width="1.391" height="7.589" transform="translate(7.589 2.315) rotate(90)" fill="#e0e0e0"/>
  </g>
  <g id="Group_23" data-name="Group 23" transform="translate(0.029 42.117)">
    <rect id="Rectangle_49" data-name="Rectangle 49" width="1.391" height="6.198" transform="translate(3.08)" fill="#e0e0e0"/>
    <rect id="Rectangle_50" data-name="Rectangle 50" width="1.391" height="7.589" transform="translate(7.589 2.406) rotate(90)" fill="#e0e0e0"/>
  </g>
  <g id="Group_24" data-name="Group 24" transform="translate(20.151 42.117)">
    <rect id="Rectangle_51" data-name="Rectangle 51" width="1.391" height="6.198" transform="translate(3.068)" fill="#e0e0e0"/>
    <rect id="Rectangle_52" data-name="Rectangle 52" width="1.391" height="7.589" transform="translate(7.589 2.394) rotate(90)" fill="#e0e0e0"/>
  </g>
  <g id="Group_25" data-name="Group 25" transform="translate(40.273 42.117)">
    <rect id="Rectangle_53" data-name="Rectangle 53" width="1.391" height="6.198" transform="translate(3.056)" fill="#e0e0e0"/>
    <rect id="Rectangle_54" data-name="Rectangle 54" width="1.391" height="7.589" transform="translate(7.589 2.382) rotate(90)" fill="#e0e0e0"/>
  </g>
  <g id="Group_26" data-name="Group 26" transform="translate(60.396 42.117)">
    <rect id="Rectangle_55" data-name="Rectangle 55" width="1.391" height="6.198" transform="translate(3.17)" fill="#e0e0e0"/>
    <rect id="Rectangle_56" data-name="Rectangle 56" width="1.391" height="7.589" transform="translate(7.589 2.496) rotate(90)" fill="#e0e0e0"/>
  </g>
  <g id="Group_27" data-name="Group 27" transform="translate(80.518 42.117)">
    <rect id="Rectangle_57" data-name="Rectangle 57" width="1.391" height="6.198" transform="translate(3.159)" fill="#e0e0e0"/>
    <rect id="Rectangle_58" data-name="Rectangle 58" width="1.391" height="7.589" transform="translate(7.589 2.484) rotate(90)" fill="#e0e0e0"/>
  </g>
  <g id="Group_28" data-name="Group 28" transform="translate(100.64 42.117)">
    <rect id="Rectangle_59" data-name="Rectangle 59" width="1.391" height="6.198" transform="translate(3.147)" fill="#e0e0e0"/>
    <rect id="Rectangle_60" data-name="Rectangle 60" width="1.391" height="7.589" transform="translate(7.589 2.472) rotate(90)" fill="#e0e0e0"/>
  </g>
  <g id="Group_29" data-name="Group 29" transform="translate(120.762 42.117)">
    <rect id="Rectangle_61" data-name="Rectangle 61" width="1.391" height="6.198" transform="translate(3.135)" fill="#e0e0e0"/>
    <rect id="Rectangle_62" data-name="Rectangle 62" width="1.391" height="7.589" transform="translate(7.589 2.46) rotate(90)" fill="#e0e0e0"/>
  </g>
  <g id="Group_30" data-name="Group 30" transform="translate(140.885 42.117)">
    <rect id="Rectangle_63" data-name="Rectangle 63" width="1.391" height="6.198" transform="translate(3.123)" fill="#e0e0e0"/>
    <rect id="Rectangle_64" data-name="Rectangle 64" width="1.391" height="7.589" transform="translate(7.589 2.449) rotate(90)" fill="#e0e0e0"/>
  </g>
  <g id="Group_31" data-name="Group 31" transform="translate(161.007 42.117)">
    <rect id="Rectangle_65" data-name="Rectangle 65" width="1.391" height="6.198" transform="translate(3.111)" fill="#e0e0e0"/>
    <rect id="Rectangle_66" data-name="Rectangle 66" width="1.391" height="7.589" transform="translate(7.589 2.437) rotate(90)" fill="#e0e0e0"/>
  </g>
  <g id="Group_32" data-name="Group 32" transform="translate(181.129 42.117)">
    <rect id="Rectangle_67" data-name="Rectangle 67" width="1.391" height="6.198" transform="translate(3.099)" fill="#e0e0e0"/>
    <rect id="Rectangle_68" data-name="Rectangle 68" width="1.391" height="7.589" transform="translate(7.589 2.425) rotate(90)" fill="#e0e0e0"/>
  </g>
  <g id="Group_33" data-name="Group 33" transform="translate(201.251 42.117)">
    <rect id="Rectangle_69" data-name="Rectangle 69" width="1.391" height="6.198" transform="translate(3.087)" fill="#e0e0e0"/>
    <rect id="Rectangle_70" data-name="Rectangle 70" width="1.391" height="7.589" transform="translate(7.589 2.413) rotate(90)" fill="#e0e0e0"/>
  </g>
  <g id="Group_34" data-name="Group 34" transform="translate(0 63.239)">
    <rect id="Rectangle_71" data-name="Rectangle 71" width="1.391" height="6.198" transform="translate(3.109)" fill="#e0e0e0"/>
    <rect id="Rectangle_72" data-name="Rectangle 72" width="1.391" height="7.589" transform="translate(7.589 2.377) rotate(90)" fill="#e0e0e0"/>
  </g>
  <g id="Group_35" data-name="Group 35" transform="translate(20.122 63.239)">
    <rect id="Rectangle_73" data-name="Rectangle 73" width="1.391" height="6.198" transform="translate(3.097)" fill="#e0e0e0"/>
    <rect id="Rectangle_74" data-name="Rectangle 74" width="1.391" height="7.589" transform="translate(7.589 2.365) rotate(90)" fill="#e0e0e0"/>
  </g>
  <g id="Group_36" data-name="Group 36" transform="translate(40.244 63.239)">
    <rect id="Rectangle_75" data-name="Rectangle 75" width="1.391" height="6.198" transform="translate(3.085)" fill="#e0e0e0"/>
    <rect id="Rectangle_76" data-name="Rectangle 76" width="1.391" height="7.589" transform="translate(7.589 2.353) rotate(90)" fill="#e0e0e0"/>
  </g>
  <g id="Group_37" data-name="Group 37" transform="translate(60.367 63.239)">
    <rect id="Rectangle_77" data-name="Rectangle 77" width="1.391" height="6.198" transform="translate(3.199)" fill="#e0e0e0"/>
    <rect id="Rectangle_78" data-name="Rectangle 78" width="1.391" height="7.589" transform="translate(7.589 2.467) rotate(90)" fill="#e0e0e0"/>
  </g>
  <g id="Group_38" data-name="Group 38" transform="translate(80.489 63.239)">
    <rect id="Rectangle_79" data-name="Rectangle 79" width="1.391" height="6.198" transform="translate(3.187)" fill="#e0e0e0"/>
    <rect id="Rectangle_80" data-name="Rectangle 80" width="1.391" height="7.589" transform="translate(7.589 2.455) rotate(90)" fill="#e0e0e0"/>
  </g>
  <g id="Group_39" data-name="Group 39" transform="translate(100.611 63.239)">
    <rect id="Rectangle_81" data-name="Rectangle 81" width="1.391" height="6.198" transform="translate(3.175)" fill="#e0e0e0"/>
    <rect id="Rectangle_82" data-name="Rectangle 82" width="1.391" height="7.589" transform="translate(7.589 2.443) rotate(90)" fill="#e0e0e0"/>
  </g>
  <g id="Group_40" data-name="Group 40" transform="translate(120.733 63.239)">
    <rect id="Rectangle_83" data-name="Rectangle 83" width="1.391" height="6.198" transform="translate(3.164)" fill="#e0e0e0"/>
    <rect id="Rectangle_84" data-name="Rectangle 84" width="1.391" height="7.589" transform="translate(7.589 2.432) rotate(90)" fill="#e0e0e0"/>
  </g>
  <g id="Group_41" data-name="Group 41" transform="translate(140.856 63.239)">
    <rect id="Rectangle_85" data-name="Rectangle 85" width="1.391" height="6.198" transform="translate(3.151)" fill="#e0e0e0"/>
    <rect id="Rectangle_86" data-name="Rectangle 86" width="1.391" height="7.589" transform="translate(7.589 2.42) rotate(90)" fill="#e0e0e0"/>
  </g>
  <g id="Group_42" data-name="Group 42" transform="translate(160.978 63.239)">
    <rect id="Rectangle_87" data-name="Rectangle 87" width="1.391" height="6.198" transform="translate(3.14)" fill="#e0e0e0"/>
    <rect id="Rectangle_88" data-name="Rectangle 88" width="1.391" height="7.589" transform="translate(7.589 2.408) rotate(90)" fill="#e0e0e0"/>
  </g>
  <g id="Group_43" data-name="Group 43" transform="translate(181.1 63.239)">
    <rect id="Rectangle_89" data-name="Rectangle 89" width="1.391" height="6.198" transform="translate(3.128)" fill="#e0e0e0"/>
    <rect id="Rectangle_90" data-name="Rectangle 90" width="1.391" height="7.589" transform="translate(7.589 2.396) rotate(90)" fill="#e0e0e0"/>
  </g>
  <g id="Group_44" data-name="Group 44" transform="translate(201.222 63.239)">
    <rect id="Rectangle_91" data-name="Rectangle 91" width="1.391" height="6.198" transform="translate(3.116)" fill="#e0e0e0"/>
    <rect id="Rectangle_92" data-name="Rectangle 92" width="1.391" height="7.589" transform="translate(7.589 2.384) rotate(90)" fill="#e0e0e0"/>
  </g>
  <g id="Group_45" data-name="Group 45" transform="translate(0.098 84.362)">
    <rect id="Rectangle_93" data-name="Rectangle 93" width="1.391" height="6.198" transform="translate(3.011)" fill="#e0e0e0"/>
    <rect id="Rectangle_94" data-name="Rectangle 94" width="1.391" height="7.589" transform="translate(7.589 2.348) rotate(90)" fill="#e0e0e0"/>
  </g>
  <g id="Group_46" data-name="Group 46" transform="translate(20.22 84.362)">
    <rect id="Rectangle_95" data-name="Rectangle 95" width="1.391" height="6.198" transform="translate(2.999)" fill="#e0e0e0"/>
    <rect id="Rectangle_96" data-name="Rectangle 96" width="1.391" height="7.589" transform="translate(7.589 2.336) rotate(90)" fill="#e0e0e0"/>
  </g>
  <g id="Group_47" data-name="Group 47" transform="translate(40.342 84.362)">
    <rect id="Rectangle_97" data-name="Rectangle 97" width="1.391" height="6.198" transform="translate(2.987)" fill="#e0e0e0"/>
    <rect id="Rectangle_98" data-name="Rectangle 98" width="1.391" height="7.589" transform="translate(7.589 2.324) rotate(90)" fill="#e0e0e0"/>
  </g>
  <g id="Group_48" data-name="Group 48" transform="translate(60.464 84.362)">
    <rect id="Rectangle_99" data-name="Rectangle 99" width="1.391" height="6.198" transform="translate(3.102)" fill="#e0e0e0"/>
    <rect id="Rectangle_100" data-name="Rectangle 100" width="1.391" height="7.589" transform="translate(7.589 2.439) rotate(90)" fill="#e0e0e0"/>
  </g>
  <g id="Group_49" data-name="Group 49" transform="translate(80.587 84.362)">
    <rect id="Rectangle_101" data-name="Rectangle 101" width="1.391" height="6.198" transform="translate(3.09)" fill="#e0e0e0"/>
    <rect id="Rectangle_102" data-name="Rectangle 102" width="1.391" height="7.589" transform="translate(7.589 2.427) rotate(90)" fill="#e0e0e0"/>
  </g>
  <g id="Group_50" data-name="Group 50" transform="translate(100.709 84.362)">
    <rect id="Rectangle_103" data-name="Rectangle 103" width="1.391" height="6.198" transform="translate(3.078)" fill="#e0e0e0"/>
    <rect id="Rectangle_104" data-name="Rectangle 104" width="1.391" height="7.589" transform="translate(7.589 2.415) rotate(90)" fill="#e0e0e0"/>
  </g>
  <g id="Group_51" data-name="Group 51" transform="translate(120.831 84.362)">
    <rect id="Rectangle_105" data-name="Rectangle 105" width="1.391" height="6.198" transform="translate(3.066)" fill="#e0e0e0"/>
    <rect id="Rectangle_106" data-name="Rectangle 106" width="1.391" height="7.589" transform="translate(7.589 2.403) rotate(90)" fill="#e0e0e0"/>
  </g>
  <g id="Group_52" data-name="Group 52" transform="translate(140.953 84.362)">
    <rect id="Rectangle_107" data-name="Rectangle 107" width="1.391" height="6.198" transform="translate(3.054)" fill="#e0e0e0"/>
    <rect id="Rectangle_108" data-name="Rectangle 108" width="1.391" height="7.589" transform="translate(7.589 2.391) rotate(90)" fill="#e0e0e0"/>
  </g>
  <g id="Group_53" data-name="Group 53" transform="translate(161.075 84.362)">
    <rect id="Rectangle_109" data-name="Rectangle 109" width="1.391" height="6.198" transform="translate(3.042)" fill="#e0e0e0"/>
    <rect id="Rectangle_110" data-name="Rectangle 110" width="1.391" height="7.589" transform="translate(7.589 2.379) rotate(90)" fill="#e0e0e0"/>
  </g>
  <g id="Group_54" data-name="Group 54" transform="translate(181.198 84.362)">
    <rect id="Rectangle_111" data-name="Rectangle 111" width="1.391" height="6.198" transform="translate(3.03)" fill="#e0e0e0"/>
    <rect id="Rectangle_112" data-name="Rectangle 112" width="1.391" height="7.589" transform="translate(7.589 2.367) rotate(90)" fill="#e0e0e0"/>
  </g>
  <g id="Group_55" data-name="Group 55" transform="translate(201.32 84.362)">
    <rect id="Rectangle_113" data-name="Rectangle 113" width="1.391" height="6.198" transform="translate(3.018)" fill="#e0e0e0"/>
    <rect id="Rectangle_114" data-name="Rectangle 114" width="1.391" height="7.589" transform="translate(7.589 2.355) rotate(90)" fill="#e0e0e0"/>
  </g>
  <g id="Group_56" data-name="Group 56" transform="translate(0.069 105.484)">
    <rect id="Rectangle_115" data-name="Rectangle 115" width="1.391" height="6.198" transform="translate(3.04)" fill="#e0e0e0"/>
    <rect id="Rectangle_116" data-name="Rectangle 116" width="1.391" height="7.589" transform="translate(7.589 2.319) rotate(90)" fill="#e0e0e0"/>
  </g>
  <g id="Group_57" data-name="Group 57" transform="translate(20.191 105.484)">
    <rect id="Rectangle_117" data-name="Rectangle 117" width="1.391" height="6.198" transform="translate(3.028)" fill="#e0e0e0"/>
    <rect id="Rectangle_118" data-name="Rectangle 118" width="1.391" height="7.589" transform="translate(7.589 2.307) rotate(90)" fill="#e0e0e0"/>
  </g>
  <g id="Group_58" data-name="Group 58" transform="translate(40.313 105.484)">
    <rect id="Rectangle_119" data-name="Rectangle 119" width="1.391" height="6.198" transform="translate(3.016)" fill="#e0e0e0"/>
    <rect id="Rectangle_120" data-name="Rectangle 120" width="1.391" height="7.589" transform="translate(7.589 2.295) rotate(90)" fill="#e0e0e0"/>
  </g>
  <g id="Group_59" data-name="Group 59" transform="translate(60.435 105.484)">
    <rect id="Rectangle_121" data-name="Rectangle 121" width="1.391" height="6.198" transform="translate(3.131)" fill="#e0e0e0"/>
    <rect id="Rectangle_122" data-name="Rectangle 122" width="1.391" height="7.589" transform="translate(7.589 2.41) rotate(90)" fill="#e0e0e0"/>
  </g>
  <g id="Group_60" data-name="Group 60" transform="translate(80.558 105.484)">
    <rect id="Rectangle_123" data-name="Rectangle 123" width="1.391" height="6.198" transform="translate(3.119)" fill="#e0e0e0"/>
    <rect id="Rectangle_124" data-name="Rectangle 124" width="1.391" height="7.589" transform="translate(7.589 2.398) rotate(90)" fill="#e0e0e0"/>
  </g>
  <g id="Group_61" data-name="Group 61" transform="translate(100.68 105.484)">
    <rect id="Rectangle_125" data-name="Rectangle 125" width="1.391" height="6.198" transform="translate(3.107)" fill="#e0e0e0"/>
    <rect id="Rectangle_126" data-name="Rectangle 126" width="1.391" height="7.589" transform="translate(7.589 2.386) rotate(90)" fill="#e0e0e0"/>
  </g>
  <g id="Group_62" data-name="Group 62" transform="translate(120.802 105.484)">
    <rect id="Rectangle_127" data-name="Rectangle 127" width="1.391" height="6.198" transform="translate(3.095)" fill="#e0e0e0"/>
    <rect id="Rectangle_128" data-name="Rectangle 128" width="1.391" height="7.589" transform="translate(7.589 2.374) rotate(90)" fill="#e0e0e0"/>
  </g>
  <g id="Group_63" data-name="Group 63" transform="translate(140.924 105.484)">
    <rect id="Rectangle_129" data-name="Rectangle 129" width="1.391" height="6.198" transform="translate(3.083)" fill="#e0e0e0"/>
    <rect id="Rectangle_130" data-name="Rectangle 130" width="1.391" height="7.589" transform="translate(7.589 2.362) rotate(90)" fill="#e0e0e0"/>
  </g>
  <g id="Group_64" data-name="Group 64" transform="translate(161.047 105.484)">
    <rect id="Rectangle_131" data-name="Rectangle 131" width="1.391" height="6.198" transform="translate(3.071)" fill="#e0e0e0"/>
    <rect id="Rectangle_132" data-name="Rectangle 132" width="1.391" height="7.589" transform="translate(7.589 2.35) rotate(90)" fill="#e0e0e0"/>
  </g>
  <g id="Group_65" data-name="Group 65" transform="translate(181.169 105.484)">
    <rect id="Rectangle_133" data-name="Rectangle 133" width="1.391" height="6.198" transform="translate(3.059)" fill="#e0e0e0"/>
    <rect id="Rectangle_134" data-name="Rectangle 134" width="1.391" height="7.589" transform="translate(7.589 2.338) rotate(90)" fill="#e0e0e0"/>
  </g>
  <g id="Group_66" data-name="Group 66" transform="translate(201.291 105.484)">
    <rect id="Rectangle_135" data-name="Rectangle 135" width="1.391" height="6.198" transform="translate(3.047)" fill="#e0e0e0"/>
    <rect id="Rectangle_136" data-name="Rectangle 136" width="1.391" height="7.589" transform="translate(7.589 2.326) rotate(90)" fill="#e0e0e0"/>
  </g>
  <g id="Group_67" data-name="Group 67" transform="translate(0.04 126.479)">
    <rect id="Rectangle_137" data-name="Rectangle 137" width="1.391" height="6.198" transform="translate(3.069)" fill="#e0e0e0"/>
    <rect id="Rectangle_138" data-name="Rectangle 138" width="1.391" height="7.589" transform="translate(7.589 2.417) rotate(90)" fill="#e0e0e0"/>
  </g>
  <g id="Group_68" data-name="Group 68" transform="translate(20.162 126.479)">
    <rect id="Rectangle_139" data-name="Rectangle 139" width="1.391" height="6.198" transform="translate(3.057)" fill="#e0e0e0"/>
    <rect id="Rectangle_140" data-name="Rectangle 140" width="1.391" height="7.589" transform="translate(7.589 2.405) rotate(90)" fill="#e0e0e0"/>
  </g>
  <g id="Group_69" data-name="Group 69" transform="translate(40.284 126.479)">
    <rect id="Rectangle_141" data-name="Rectangle 141" width="1.391" height="6.198" transform="translate(3.045)" fill="#e0e0e0"/>
    <rect id="Rectangle_142" data-name="Rectangle 142" width="1.391" height="7.589" transform="translate(7.589 2.393) rotate(90)" fill="#e0e0e0"/>
  </g>
  <g id="Group_70" data-name="Group 70" transform="translate(60.406 126.479)">
    <rect id="Rectangle_143" data-name="Rectangle 143" width="1.391" height="6.198" transform="translate(3.159)" fill="#e0e0e0"/>
    <rect id="Rectangle_144" data-name="Rectangle 144" width="1.391" height="7.589" transform="translate(7.589 2.507) rotate(90)" fill="#e0e0e0"/>
  </g>
  <g id="Group_71" data-name="Group 71" transform="translate(80.529 126.479)">
    <rect id="Rectangle_145" data-name="Rectangle 145" width="1.391" height="6.198" transform="translate(3.148)" fill="#e0e0e0"/>
    <rect id="Rectangle_146" data-name="Rectangle 146" width="1.391" height="7.589" transform="translate(7.589 2.495) rotate(90)" fill="#e0e0e0"/>
  </g>
  <g id="Group_72" data-name="Group 72" transform="translate(100.651 126.479)">
    <rect id="Rectangle_147" data-name="Rectangle 147" width="1.391" height="6.198" transform="translate(3.136)" fill="#e0e0e0"/>
    <rect id="Rectangle_148" data-name="Rectangle 148" width="1.391" height="7.589" transform="translate(7.589 2.483) rotate(90)" fill="#e0e0e0"/>
  </g>
  <g id="Group_73" data-name="Group 73" transform="translate(120.773 126.479)">
    <rect id="Rectangle_149" data-name="Rectangle 149" width="1.391" height="6.198" transform="translate(3.124)" fill="#e0e0e0"/>
    <rect id="Rectangle_150" data-name="Rectangle 150" width="1.391" height="7.589" transform="translate(7.589 2.471) rotate(90)" fill="#e0e0e0"/>
  </g>
  <g id="Group_74" data-name="Group 74" transform="translate(140.896 126.479)">
    <rect id="Rectangle_151" data-name="Rectangle 151" width="1.391" height="6.198" transform="translate(3.112)" fill="#e0e0e0"/>
    <rect id="Rectangle_152" data-name="Rectangle 152" width="1.391" height="7.589" transform="translate(7.589 2.459) rotate(90)" fill="#e0e0e0"/>
  </g>
  <g id="Group_75" data-name="Group 75" transform="translate(161.018 126.479)">
    <rect id="Rectangle_153" data-name="Rectangle 153" width="1.391" height="6.198" transform="translate(3.1)" fill="#e0e0e0"/>
    <rect id="Rectangle_154" data-name="Rectangle 154" width="1.391" height="7.589" transform="translate(7.589 2.448) rotate(90)" fill="#e0e0e0"/>
  </g>
  <g id="Group_76" data-name="Group 76" transform="translate(181.14 126.479)">
    <rect id="Rectangle_155" data-name="Rectangle 155" width="1.391" height="6.198" transform="translate(3.088)" fill="#e0e0e0"/>
    <rect id="Rectangle_156" data-name="Rectangle 156" width="1.391" height="7.589" transform="translate(7.589 2.435) rotate(90)" fill="#e0e0e0"/>
  </g>
  <g id="Group_77" data-name="Group 77" transform="translate(201.262 126.479)">
    <rect id="Rectangle_157" data-name="Rectangle 157" width="1.391" height="6.198" transform="translate(3.076)" fill="#e0e0e0"/>
    <rect id="Rectangle_158" data-name="Rectangle 158" width="1.391" height="7.589" transform="translate(7.589 2.424) rotate(90)" fill="#e0e0e0"/>
  </g>
  <g id="Group_78" data-name="Group 78" transform="translate(0.011 147.602)">
    <rect id="Rectangle_159" data-name="Rectangle 159" width="1.391" height="6.198" transform="translate(3.098)" fill="#e0e0e0"/>
    <rect id="Rectangle_160" data-name="Rectangle 160" width="1.391" height="7.589" transform="translate(7.589 2.388) rotate(90)" fill="#e0e0e0"/>
  </g>
  <g id="Group_79" data-name="Group 79" transform="translate(20.133 147.602)">
    <rect id="Rectangle_161" data-name="Rectangle 161" width="1.391" height="6.198" transform="translate(3.086)" fill="#e0e0e0"/>
    <rect id="Rectangle_162" data-name="Rectangle 162" width="1.391" height="7.589" transform="translate(7.589 2.376) rotate(90)" fill="#e0e0e0"/>
  </g>
  <g id="Group_80" data-name="Group 80" transform="translate(40.256 147.602)">
    <rect id="Rectangle_163" data-name="Rectangle 163" width="1.391" height="6.198" transform="translate(3.074)" fill="#e0e0e0"/>
    <rect id="Rectangle_164" data-name="Rectangle 164" width="1.391" height="7.589" transform="translate(7.589 2.364) rotate(90)" fill="#e0e0e0"/>
  </g>
  <g id="Group_81" data-name="Group 81" transform="translate(60.378 147.602)">
    <rect id="Rectangle_165" data-name="Rectangle 165" width="1.391" height="6.198" transform="translate(3.188)" fill="#e0e0e0"/>
    <rect id="Rectangle_166" data-name="Rectangle 166" width="1.391" height="7.589" transform="translate(7.589 2.478) rotate(90)" fill="#e0e0e0"/>
  </g>
  <g id="Group_82" data-name="Group 82" transform="translate(80.5 147.602)">
    <rect id="Rectangle_167" data-name="Rectangle 167" width="1.391" height="6.198" transform="translate(3.176)" fill="#e0e0e0"/>
    <rect id="Rectangle_168" data-name="Rectangle 168" width="1.391" height="7.589" transform="translate(7.589 2.466) rotate(90)" fill="#e0e0e0"/>
  </g>
  <g id="Group_83" data-name="Group 83" transform="translate(100.622 147.602)">
    <rect id="Rectangle_169" data-name="Rectangle 169" width="1.391" height="6.198" transform="translate(3.165)" fill="#e0e0e0"/>
    <rect id="Rectangle_170" data-name="Rectangle 170" width="1.391" height="7.589" transform="translate(7.589 2.454) rotate(90)" fill="#e0e0e0"/>
  </g>
  <g id="Group_84" data-name="Group 84" transform="translate(120.744 147.602)">
    <rect id="Rectangle_171" data-name="Rectangle 171" width="1.391" height="6.198" transform="translate(3.152)" fill="#e0e0e0"/>
    <rect id="Rectangle_172" data-name="Rectangle 172" width="1.391" height="7.589" transform="translate(7.589 2.443) rotate(90)" fill="#e0e0e0"/>
  </g>
  <g id="Group_85" data-name="Group 85" transform="translate(140.866 147.602)">
    <rect id="Rectangle_173" data-name="Rectangle 173" width="1.391" height="6.198" transform="translate(3.141)" fill="#e0e0e0"/>
    <rect id="Rectangle_174" data-name="Rectangle 174" width="1.391" height="7.589" transform="translate(7.589 2.431) rotate(90)" fill="#e0e0e0"/>
  </g>
  <g id="Group_86" data-name="Group 86" transform="translate(160.989 147.602)">
    <rect id="Rectangle_175" data-name="Rectangle 175" width="1.391" height="6.198" transform="translate(3.129)" fill="#e0e0e0"/>
    <rect id="Rectangle_176" data-name="Rectangle 176" width="1.391" height="7.589" transform="translate(7.589 2.419) rotate(90)" fill="#e0e0e0"/>
  </g>
  <g id="Group_87" data-name="Group 87" transform="translate(181.111 147.602)">
    <rect id="Rectangle_177" data-name="Rectangle 177" width="1.391" height="6.198" transform="translate(3.117)" fill="#e0e0e0"/>
    <rect id="Rectangle_178" data-name="Rectangle 178" width="1.391" height="7.589" transform="translate(7.589 2.407) rotate(90)" fill="#e0e0e0"/>
  </g>
  <g id="Group_88" data-name="Group 88" transform="translate(201.233 147.602)">
    <rect id="Rectangle_179" data-name="Rectangle 179" width="1.391" height="6.198" transform="translate(3.105)" fill="#e0e0e0"/>
    <rect id="Rectangle_180" data-name="Rectangle 180" width="1.391" height="7.589" transform="translate(7.589 2.395) rotate(90)" fill="#e0e0e0"/>
  </g>
</svg>
