<?xml version="1.0" encoding="utf-8"?>
<!-- Generator: Adobe Illustrator 24.1.2, SVG Export Plug-In . SVG Version: 6.00 Build 0)  -->
<svg version="1.1" baseProfile="basic" id="Layer_1"
	 xmlns="http://www.w3.org/2000/svg" xmlns:xlink="http://www.w3.org/1999/xlink" x="0px" y="0px" width="1011.6px"
	 height="836.2px" viewBox="0 0 1011.6 836.2" xml:space="preserve">
<style type="text/css">
	.st0{fill:#FFFEF5;stroke:#E6E6E6;stroke-miterlimit:10;}
	.st1{fill:#BCBCBC;}
	.st2{fill:#FFFEF5;}
	.st3{fill:#F9C146;}
	.st4{fill:#FFAE73;}
	.st5{fill:#EFA80A;}
	.st6{fill:#2C3443;}
	.st7{fill:#3B4556;}
	.st8{fill:#F5BC29;}
	.st9{fill:#FFA05E;}
	.st10{fill:#0B3563;}
	.st11{opacity:0.5;}
	.st12{fill:#ACCEFC;}
</style>
<path class="st0" d="M958.1,807.8c-61.7,0-895.5-2.1-895.5-2.2c-0.3-0.9-105.8-148.4,27-302.6c65.8-76.4-60.4-175.4,0-260.4
	C193.2,97,295.7,179,381,138c15.1-7.2,30.2-18.9,45.4-36.7c8.5-10,17.9-18.8,27.9-26.4c1.5-1.2,3.1-2.3,4.6-3.4
	c6-4.2,12.2-8.1,18.6-11.5c4.3-2.3,8.7-4.4,13.1-6.4h0c7.1-3.1,14.3-5.8,21.8-8.1c10.5-3.2,21.4-5.6,32.5-7.3
	c4.8-0.7,9.7-1.3,14.6-1.7c95.4-8.2,202.7,37.8,258.1,105c11.2,13.5,61.9,83.6,21.9,179.9c-25.2,60.8,80.5,118.8,118.1,188.3
	C1053,686.2,959,805.5,958.1,807.8z"/>
<path class="st1" d="M89.4,806.2h41.8c2.2-1.9-1.5-6.2-5.5-6.5c-1.7-0.1-3.9,0.2-6.4,0.8c-0.6-7.6-3.9-41.9-16.2-40.6
	c-13.9,1.5,0,15.1,3.9,23.1c2.9,5.9,6,14.5,7.4,18.5c-1.1,0.2-2.3,0.5-3.5,0.7c-1.8-5.7-8.7-24.7-17.4-23.6
	c-10.2,1.3-6.1,8.9,1.1,13.5c5.3,3.3,11.9,8.1,15,10.4c-2.6,0.4-5.4,0.7-8.2,0.7C94.2,803,90.7,805.1,89.4,806.2z"/>
<path class="st1" d="M754,806.2h-38.8c-2.1-1.8,1.4-5.8,5.1-6c1.6-0.1,3.6,0.2,5.9,0.7c0.5-7.1,3.6-39,15.1-37.7
	c12.9,1.4,0,14-3.7,21.5c-2.7,5.5-5.6,13.5-6.9,17.2c1,0.2,2.1,0.4,3.2,0.7c1.7-5.3,8.1-22.9,16.2-21.9c9.5,1.2,5.7,8.3-1.1,12.5
	c-4.9,3.1-11,7.5-13.9,9.6c2.4,0.4,5,0.7,7.6,0.6C749.5,803.2,752.8,805.2,754,806.2z"/>
<g>
	<path class="st2" d="M692.3,574.6l-228.1,19.2c-17.3,1.5-29.9-16.2-22.8-32.1L538,345.4c7.3-16.4,29.9-18.3,39.8-3.4l131.5,197.1
		C719,553.6,709.6,573.1,692.3,574.6z"/>
	<g>
		<path class="st3" d="M693,583.2l-228.1,19.2c-11.2,0.9-21.8-4-28.3-13.2c-6.5-9.2-7.7-20.8-3.1-31.1l96.7-216.3
			c4.7-10.6,14.5-17.6,26.1-18.5c11.6-1,22.4,4.2,28.8,13.9l131.5,197.1c6.2,9.4,7.1,21,2.2,31.2C713.8,575.6,704.2,582.3,693,583.2
			z M557.7,340.6c-5.2,0.4-9.6,3.6-11.8,8.3l-96.7,216.3c-2.1,4.6-1.6,9.9,1.4,14c2.9,4.1,7.7,6.3,12.8,5.9L691.5,566
			c5.1-0.4,9.4-3.4,11.6-8c2.2-4.6,1.8-9.8-1-14L570.6,346.9C567.7,342.5,562.9,340.2,557.7,340.6z"/>
	</g>
	<g>
		<g>
			<path class="st3" d="M552.3,541.5c-0.2-2.9,0-5.7,0.9-8.3c0.8-2.6,2.1-4.9,3.9-6.9c1.8-2,3.9-3.6,6.6-4.9c2.6-1.2,5.6-2,9-2.3
				c3.4-0.3,6.5,0,9.3,0.8c2.8,0.8,5.3,2,7.3,3.7c2.1,1.7,3.7,3.7,5,6.1c1.3,2.4,2,5.1,2.3,8c0.2,2.9-0.1,5.7-0.9,8.2
				c-0.8,2.5-2.1,4.8-3.9,6.8c-1.8,2-4,3.6-6.6,4.9c-2.7,1.3-5.7,2-9,2.3c-3.4,0.3-6.5,0-9.2-0.8c-2.8-0.8-5.2-2-7.3-3.7
				c-2.1-1.7-3.7-3.7-5-6C553.3,547.1,552.6,544.4,552.3,541.5z M587.6,500.2l-32.9,2.8l-14.1-111.9l42.2-3.6L587.6,500.2z"/>
		</g>
	</g>
</g>
<g>
	<path class="st4" d="M386.2,388.3c0,0,2-4.5,3.3-6.6c1.3-2.1,6.8-8.3,7.7-6.9c0.9,1.4,4.7,10.8,2.7,13.5c-2,2.6,0.1,7.2-9.7,10
		L386.2,388.3z"/>
	<path class="st5" d="M276.6,360.1c0,0,50.5,42.1,70.2,38.2c15.4-3,39.7-10.8,39.7-10.8s6.4,6.1,4.6,13.4c0,0-31,29.2-53.1,29.4
		c-34.5,0.3-50.8-17.1-50.8-17.1L276.6,360.1z"/>
	<path d="M188.1,804.6c0,0,1.5,23.6,6,24c0.6,0,23.2,0,23.2,0l28.8-0.2c0,0-0.2-6.9-8.6-8.4c-8.4-1.5-22.5-7.4-27.6-18.5
		C204.5,789.8,188.1,804.6,188.1,804.6z"/>
	<path class="st6" d="M186.4,806.2c0,0,8.8,2.9,15.6,2.9c7.6,0,14.6-2.1,14.6-2.1s1.7-16,10.7-51.1c4.8-18.4,11.6-42.1,21.2-71.6
		c26.7-81.4,34.9-129,35.6-133.5c0-0.2,0.1-0.4,0.1-0.4l-0.1,0L202,514.4c0,0,10.2,112.2-2.8,155.2c-1.8,6-3.4,13-4.7,20.6
		C186.3,737,186.4,806.2,186.4,806.2z"/>
	<path class="st7" d="M227.4,756c4.8-18.4,11.6-42.1,21.2-71.6c26.7-81.4,34.9-129,35.6-133.5c0-0.1,0-0.3,0-0.4L202,514.4
		c0,0,10.2,112.2-2.8,155.2C197.3,675.6,227.4,756,227.4,756z"/>
	<path d="M252.3,804.6c0,0,1.5,23.6,6,24c0.6,0,23.2,0,23.2,0l28.8-0.2c0,0-0.2-6.9-8.6-8.4c-8.4-1.5-22.5-7.4-27.6-18.5
		C268.8,789.8,252.3,804.6,252.3,804.6z"/>
	<path class="st6" d="M298.9,517c0,0,1.1,72.7-11.5,161.9c-12.6,89.2-8.3,127.1-8.3,127.1s-8.6,2.8-12.1,3.1c-8.9,0.7-18-2.1-18-2.1
		s-18-89.3-12.8-133.9c5.2-44.7-24.6-153.3-24.6-153.3L298.9,517z"/>
	<path class="st4" d="M240.6,347l16,10.5l14.6-4.1c2.7-3.8,3.4-11.2,3.4-17.5c0-6.3-0.6-11.7-0.6-11.7l-21.7-9.6l-8.1-3.6
		c0,0.1,0.6,6.6,0.7,7.6C246.7,335.5,240.6,347,240.6,347z"/>
	<path class="st8" d="M299.3,537.2c-20,19.3-95.6,16-100.2-5.2c-4.7-21.3,5.1-180.9,39.2-190.9c7.1-2.1,44.9,10.2,44.9,10.2
		s5.9,15.5,9.8,35.3c0.8,3.9,3,44.6,4.6,82.8c0.8,17.9,1.4,35.1,1.8,47.8C299.7,529,299.7,536.8,299.3,537.2z"/>
	<path class="st9" d="M246.8,318.9c4.4,7.4,19.8,13.9,28,16.9c0-6.3-0.6-11.7-0.6-11.7l-21.7-9.6
		C247.7,314.5,244.8,315.6,246.8,318.9z"/>
	<path class="st4" d="M282.3,322.8c0,0-34.9,10.9-41.3-10.9c-6.4-21.8-15.3-35.1,6.7-43c22-7.9,28.8-0.8,32.7,5.9
		C284.4,281.6,291.2,319.4,282.3,322.8z"/>
	<path class="st10" d="M279.1,272.7c0,0-2.2,25.4-7.5,24.3c-5.3-1.1-11-3.5-10.3,4.2c0.8,7.7-5.1,20.8-12.7,20.8
		c-16.2-0.1-33.9-41.8-29.5-49.7C232,249.5,297.6,244.9,279.1,272.7z"/>
	<path class="st5" d="M273.9,341.6c-0.5-0.2-26-11.6-29-10.7c-3,1-6.7,10.1-6.7,10.1l44.9,10.2C283.2,351.3,279.7,344.1,273.9,341.6
		z"/>
	<g>
		<path class="st7" d="M432.8,465.3L289.8,600c-2.8,2.6-6.3,3.5-7.9,1.9l-4.8-5.1c-1.5-1.6-0.5-5.1,2.3-7.7l143.1-134.7
			c2.8-2.6,6.3-3.5,7.9-1.9l4.8,5.1C436.7,459.2,435.6,462.7,432.8,465.3z"/>
		<path class="st6" d="M352.6,540.9L289.8,600c-2.8,2.6-6.3,3.5-7.9,1.9l-4.8-5.1c-1.5-1.6-0.5-5.1,2.3-7.7l62.8-59.1L352.6,540.9z"
			/>
		<path class="st7" d="M400,414.4c5.5,18.1,15.7,35.1,30.4,49c45.1,42.4,116.1,40.3,158.5-4.8c41.9-44.5,40.3-114.2-3.1-156.8
			c-0.6-0.6-1.2-1.1-1.8-1.7c-45.1-42.4-116.1-40.3-158.5,4.8C397,335.2,388.6,377.2,400,414.4z M432,310.9
			c24.7-26.3,59.9-36.7,92.9-31c19.3,3.3,37.8,12.2,53.1,26.5c41.5,39.1,43.5,104.5,4.4,146c-14.4,15.3-32.3,25.2-51.3,29.7
			c-32.6,7.7-68.4-0.6-94.7-25.3C394.9,417.9,392.9,352.5,432,310.9z"/>
		<g class="st11">
			<path class="st12" d="M582.5,452.5c-14.4,15.3-32.3,25.2-51.3,29.7c-32.6,7.7-68.4-0.6-94.7-25.3c-41.5-39.1-43.5-104.5-4.4-146
				c24.7-26.2,59.9-36.7,92.9-31c19.3,3.3,37.8,12.2,53.1,26.5C619.6,345.6,621.5,410.9,582.5,452.5z"/>
		</g>
	</g>
	<path class="st5" d="M299.4,517.2C220.6,461,227.1,386,227.1,386c28.8,16.3,57.4,52.2,70.5,83.4
		C298.4,487.3,299.1,504.5,299.4,517.2z"/>
	<g>
		<path class="st4" d="M377.2,491.6c5.6-1.3,9.3-5.5,10.1-6.2c0,0,2.4,0.2-0.4,5.2c-0.2,0.4-0.7,1.5-1.1,2.3
			c-0.2,0.3,0.1,0.7,0.4,0.7c3.2,0.2,6.4-1,12.6,0.3c0.9,0.2,1.1,2.2,1.1,3.1c-0.1,1.5,0.1,3.1-1.7,5.4c-1,1.3-3.8,2.7-10,5.2
			c-2.4,0.9-9.1,0.2-15.4-1.9l-5-2.3l1.6-9.4l1.3,0.3C372.6,494.6,375.1,492.1,377.2,491.6z"/>
		<path class="st3" d="M251.6,351.3c0,0-70.8,13.5,20.8,116.1c14.7,16.4,93.9,37.8,93.9,37.8s8-6.8,4-12.4c0,0-54.5-39.6-66.5-45.9
			c-5.4-2.8-21-63.2-29.8-77.8C265.2,354.5,251.6,351.3,251.6,351.3z"/>
	</g>
	<path class="st4" d="M388.1,389.5c0,0,2.3-4.4,2.8-6.8c0.5-2.3,3.4-9.1,4.6-10.3c0.5-0.5,2.1,0.1,2.3,2.2c0.1,0.9-0.4,2.5-1.1,4.5
		c-1.3,3.2-1.1,7.5-1.5,8.9C394,391.6,388.1,389.5,388.1,389.5z"/>
</g>
</svg>
