<?xml version="1.0" encoding="utf-8"?>
<!-- Generator: Adobe Illustrator 24.1.2, SVG Export Plug-In . SVG Version: 6.00 Build 0)  -->
<svg version="1.1" baseProfile="basic" id="Layer_1"
	 xmlns="http://www.w3.org/2000/svg" xmlns:xlink="http://www.w3.org/1999/xlink" x="0px" y="0px" width="519px" height="429px"
	 viewBox="0 0 519 429" xml:space="preserve">
<style type="text/css">
	.st0{fill:#ADADAD;}
	.st1{fill:#F5BC29;}
</style>
<g>
	<g>
		<path class="st0" d="M342.4,184.3c-0.7-1.3-1.8-2.3-3-3l-128-72c-3.8-2.2-8.7-0.8-10.9,3c-0.7,1.2-1.1,2.6-1,4v144
			c0,2.8,1.5,5.5,4,6.9c2.5,1.4,5.5,1.5,8,0.1l128-72C343.2,193,344.6,188.1,342.4,184.3z M215.4,246.5V129.9l103.7,58.3
			L215.4,246.5z"/>
	</g>
</g>
<g>
	<g>
		<path class="st0" d="M255.4,60.2c-70.7,0-128,57.3-128,128c0.1,70.7,57.3,127.9,128,128c70.7,0,128-57.3,128-128
			S326.1,60.2,255.4,60.2z M255.4,300.2c-61.9,0-112-50.1-112-112c0.1-61.8,50.2-111.9,112-112c61.9,0,112,50.1,112,112
			S317.3,300.2,255.4,300.2z"/>
	</g>
</g>
<g>
	<g>
		<path class="st0" d="M471.4,12.2h-432c-13.3,0-24,10.7-24,24v352c0,13.3,10.7,24,24,24h414.9v-16H39.4c-4.4,0-8-3.6-8-8v-352
			c0-4.4,3.6-8,8-8h432c4.4,0,8,3.6,8,8v178.3h16V36.2C495.4,23,484.7,12.2,471.4,12.2z"/>
	</g>
</g>
<g>
	<g>
		<rect x="47.4" y="44.2" class="st0" width="16" height="16"/>
	</g>
</g>
<g>
	<g>
		<rect x="79.4" y="44.2" class="st0" width="16" height="16"/>
	</g>
</g>
<g>
	<g>
		<rect x="111.4" y="44.2" class="st0" width="16" height="16"/>
	</g>
</g>
<path class="st1" d="M468.3,228.5v53.2l10.4,78.3h17l10.7-78.3v-53.2H468.3z M468.3,375.5v37h38v-37H468.3z"/>
</svg>
