<svg xmlns="http://www.w3.org/2000/svg" width="22.39" height="16" viewBox="0 0 22.39 16">
  <path id="Path_631" data-name="Path 631" d="M9.648,19.586A.8.8,0,0,1,9.1,19.37a7.418,7.418,0,0,1,0-10.759.8.8,0,0,1,1.087,1.167,5.835,5.835,0,0,0,0,8.425.8.8,0,0,1-.544,1.383Zm-3.2,2.142a.8.8,0,0,0,0-1.127,9.136,9.136,0,0,1,0-13.221A.811.811,0,0,0,5.324,6.213a10.743,10.743,0,0,0,0,15.555.8.8,0,0,0,1.135-.04ZM17.266,19.37a7.418,7.418,0,0,0,0-10.759.8.8,0,1,0-1.1,1.167,5.811,5.811,0,0,1,0,8.425.8.8,0,0,0,1.1,1.167Zm3.773,2.4a10.719,10.719,0,0,0,0-15.555A.8.8,0,0,0,19.951,7.38a9.136,9.136,0,0,1,0,13.221.8.8,0,1,0,1.087,1.167ZM14.788,13.99a1.6,1.6,0,1,0-1.6,1.6A1.6,1.6,0,0,0,14.788,13.99Z" transform="translate(-1.991 -5.985)" fill="#6e7687"/>
</svg>
