<svg xmlns="http://www.w3.org/2000/svg" width="24.908" height="18.685" viewBox="0 0 24.908 18.685">
  <path id="icon__youtube" d="M24.746,8.626a3.782,3.782,0,0,0-3.6-3.951C18.45,4.549,15.7,4.5,12.893,4.5h-.876c-2.8,0-5.556.049-8.252.175A3.79,3.79,0,0,0,.17,8.636C.049,10.368-.005,12.1,0,13.832s.049,3.464.165,5.2A3.8,3.8,0,0,0,3.761,23c2.832.131,5.736.19,8.69.185s5.853-.049,8.69-.185a3.8,3.8,0,0,0,3.6-3.965c.117-1.737.17-3.469.165-5.206S24.863,10.363,24.746,8.626ZM10.071,18.605V9.044l7.055,4.778Z" transform="translate(0 -4.5)" fill="#6e7687"/>
</svg>
